<?xml version="1.0" encoding="utf-8"?>
<!-- Generator: Adobe Illustrator 22.0.1, SVG Export Plug-In . SVG Version: 6.00 Build 0)  -->
<svg version="1.1" id="Layer_1" xmlns="http://www.w3.org/2000/svg" xmlns:xlink="http://www.w3.org/1999/xlink" x="0px" y="0px"
	 viewBox="0 0 144 48" style="enable-background:new 0 0 144 48;" xml:space="preserve">
<style type="text/css">
	.st0{fill:#FFFFFF;}
	.st1{fill:#5E5E5E;}
	.st2{fill:url(#SVGID_1_);}
	.st3{fill:url(#SVGID_2_);}
	.st4{fill:#4B4C4E;}
	.st5{fill:url(#SVGID_3_);}
	.st6{fill:#2D2D2D;}
	.st7{fill:url(#SVGID_4_);}
	.st8{fill:url(#SVGID_5_);}
	.st9{fill:url(#SVGID_6_);}
	.st10{fill:none;}
	.st11{fill:#F05D22;}
	.st12{fill:#FAAF40;}
	.st13{fill:#767676;}
</style>
<g>
	<path class="st10" d="M84.5,26.3c-0.1-0.3-0.2-0.5-0.5-0.7c-0.2-0.2-0.5-0.3-0.9-0.3s-0.6,0.1-0.9,0.3c-0.2,0.2-0.4,0.4-0.5,0.7
		c-0.1,0.3-0.2,0.6-0.2,1c0,0.4,0,0.7,0,1.1c0,0.4,0,0.7,0,1.1c0,0.4,0.1,0.7,0.2,1c0.1,0.3,0.2,0.5,0.5,0.7s0.5,0.3,0.9,0.3
		s0.6-0.1,0.9-0.3s0.4-0.4,0.5-0.7c0.1-0.3,0.2-0.6,0.2-1c0-0.4,0-0.7,0-1.1c0-0.4,0-0.7,0-1.1S84.6,26.6,84.5,26.3z"/>
	<path class="st10" d="M120.9,28c-0.1,0.1-0.1,0.1-0.3,0.2c-0.2,0.1-0.4,0.2-0.5,0.2c-0.2,0.1-0.3,0.2-0.5,0.3
		c-0.1,0.1-0.3,0.3-0.3,0.4c-0.1,0.2-0.1,0.4-0.1,0.7c0,0.1,0,0.2,0,0.4c0,0.1,0.1,0.3,0.1,0.4c0.1,0.1,0.2,0.3,0.3,0.4
		c0.1,0.1,0.3,0.1,0.5,0.1c0.1,0,0.2,0,0.4-0.1c0.1-0.1,0.2-0.1,0.3-0.3c0.1-0.1,0.2-0.3,0.2-0.5c0.1-0.2,0.1-0.4,0.1-0.7v-1.8h0
		C121,27.9,121,28,120.9,28z"/>
	<path class="st10" d="M129.1,26.4c-0.1-0.3-0.3-0.5-0.5-0.7c-0.2-0.2-0.5-0.3-0.8-0.3c-0.2,0-0.4,0.1-0.6,0.2
		c-0.2,0.1-0.3,0.3-0.4,0.5c-0.1,0.2-0.2,0.5-0.2,0.9c0,0.4-0.1,0.9-0.1,1.4c0,0.5,0,0.9,0,1.2c0,0.4,0.1,0.7,0.2,0.9
		c0.1,0.3,0.2,0.5,0.3,0.6c0.2,0.1,0.4,0.2,0.6,0.2c0.4,0,0.7-0.1,0.9-0.3s0.4-0.5,0.5-0.8c0.1-0.3,0.2-0.6,0.2-1c0-0.3,0-0.7,0-1
		c0-0.3,0-0.6,0-1C129.2,27,129.2,26.7,129.1,26.4z"/>
	<path class="st10" d="M98.1,28c-0.1,0.1-0.1,0.1-0.3,0.2c-0.2,0.1-0.4,0.2-0.5,0.2c-0.2,0.1-0.3,0.2-0.5,0.3
		c-0.1,0.1-0.3,0.3-0.3,0.4c-0.1,0.2-0.1,0.4-0.1,0.7c0,0.1,0,0.2,0,0.4s0.1,0.3,0.1,0.4s0.2,0.3,0.3,0.4s0.3,0.1,0.5,0.1
		c0.1,0,0.2,0,0.4-0.1c0.1-0.1,0.2-0.1,0.3-0.3c0.1-0.1,0.2-0.3,0.2-0.5c0.1-0.2,0.1-0.4,0.1-0.7v-1.8h0C98.2,27.9,98.2,28,98.1,28z
		"/>
	<path class="st10" d="M137.6,26.3c-0.1-0.3-0.2-0.5-0.5-0.7c-0.2-0.2-0.5-0.3-0.9-0.3c-0.4,0-0.6,0.1-0.9,0.3
		c-0.2,0.2-0.4,0.4-0.5,0.7s-0.2,0.6-0.2,1s0,0.7,0,1.1c0,0.4,0,0.7,0,1.1c0,0.4,0.1,0.7,0.2,1c0.1,0.3,0.2,0.5,0.5,0.7
		c0.2,0.2,0.5,0.3,0.9,0.3c0.4,0,0.6-0.1,0.9-0.3c0.2-0.2,0.4-0.4,0.5-0.7c0.1-0.3,0.2-0.6,0.2-1c0-0.4,0-0.7,0-1.1
		c0-0.4,0-0.7,0-1.1S137.7,26.6,137.6,26.3z"/>
	<polygon class="st10" points="54.5,27.2 57.8,27.2 56.1,23.4 	"/>
	<polygon class="st11" points="4.3,29.1 4.3,44.2 43.8,44.2 43.8,33.7 32.8,21.2 	"/>
	<polygon class="st12" points="4.3,26.1 19.4,11.8 43.8,24.4 43.8,3.8 4.3,3.8 	"/>
	<path class="st13" d="M117.9,22.5c0-0.2-0.1-0.5-0.2-0.6c-0.1-0.2-0.2-0.3-0.4-0.4c-0.2-0.1-0.4-0.2-0.6-0.2
		c-0.2-0.1-0.4-0.1-0.6-0.1c-0.5,0-0.9,0.1-1.2,0.2c-0.3,0.1-0.6,0.3-0.8,0.5c-0.2,0.2-0.4,0.5-0.5,0.7c-0.1,0.3-0.2,0.6-0.2,0.9
		c-0.1,0.3-0.1,0.6-0.1,1s0,0.6,0,1h-0.9v0.2h0.9v5.6h-0.9v0.2h3.7v-0.2H115v-5.6h1.2v-0.2H115v-2.2c0-0.2,0-0.5,0-0.7
		c0-0.2,0-0.4,0.1-0.6s0.1-0.3,0.2-0.4c0.1-0.1,0.3-0.1,0.5-0.1c0.2,0,0.3,0,0.4,0.1c0.1,0.1,0.2,0.2,0.2,0.4c0,0,0,0.1,0,0.1
		c0,0.1,0,0.1,0,0.2c0,0.1,0,0.2,0,0.2c0,0.1,0,0.1,0,0.1c0,0.5,0.2,0.7,0.7,0.7c0.2,0,0.4-0.1,0.6-0.2
		C117.8,22.9,117.9,22.7,117.9,22.5z"/>
	<polygon class="st13" points="110.6,25.3 108,25.3 108,25.5 108.9,25.5 108.9,31.1 108,31.1 108,31.3 111.6,31.3 111.6,31.1 
		110.6,31.1 	"/>
	<path class="st13" d="M106.2,25.2c-0.5,0-0.8,0.1-1.1,0.4c-0.3,0.3-0.5,0.6-0.7,0.9h0v-1.2h-2.6v0.2h0.9v5.6h-0.9v0.2h3.7v-0.2
		h-1.1v-3.6c0-0.3,0-0.6,0.1-0.8c0.1-0.2,0.2-0.4,0.3-0.6s0.3-0.3,0.4-0.4c0.1-0.1,0.3-0.1,0.4-0.1c0.1,0,0.1,0,0.2,0
		c0,0,0.1,0.1,0.1,0.1c0,0,0,0.1,0,0.1l0,0.1c0,0,0,0,0,0.1c0,0.1,0,0.1,0,0.2c0,0.1,0,0.2,0,0.2c0,0.1,0,0.1,0,0.1
		c0,0.2,0.1,0.4,0.3,0.5c0.2,0.1,0.4,0.1,0.6,0.1c0.3,0,0.5-0.1,0.7-0.2s0.2-0.4,0.2-0.7c0-0.4-0.1-0.7-0.4-0.9
		S106.6,25.2,106.2,25.2z"/>
	<path class="st13" d="M123.5,31.2c-0.1,0-0.2,0.1-0.3,0.1c-0.2,0-0.3-0.1-0.4-0.2c-0.1-0.1-0.1-0.3-0.1-0.5v-3.5
		c0-0.4-0.1-0.7-0.2-1c-0.1-0.3-0.3-0.5-0.5-0.6c-0.2-0.1-0.5-0.3-0.8-0.3c-0.3-0.1-0.6-0.1-1-0.1c-0.3,0-0.6,0-0.9,0.1
		c-0.3,0.1-0.5,0.2-0.8,0.3s-0.4,0.3-0.5,0.5c-0.1,0.2-0.2,0.4-0.2,0.7c0,0.2,0,0.3,0.1,0.4c0.1,0.1,0.1,0.2,0.2,0.2
		c0.1,0.1,0.2,0.1,0.3,0.1c0.1,0,0.2,0,0.3,0c0.1,0,0.1,0,0.2,0c0.1,0,0.2,0,0.3-0.1c0.1,0,0.2-0.1,0.2-0.2c0.1-0.1,0.1-0.2,0.1-0.3
		c0,0,0-0.1,0-0.2c0-0.1,0-0.2,0-0.2s0-0.2,0-0.2c0-0.1,0-0.1,0-0.1c0-0.3,0.1-0.4,0.2-0.5s0.3-0.1,0.6-0.1c0.3,0,0.6,0.1,0.7,0.3
		c0.1,0.2,0.2,0.4,0.2,0.7v0.9c0,0.2,0,0.3-0.1,0.4c-0.1,0.1-0.1,0.2-0.3,0.3c-0.1,0.1-0.3,0.2-0.6,0.3c-0.2,0.1-0.5,0.2-0.9,0.3
		c-0.2,0.1-0.5,0.2-0.7,0.2c-0.2,0.1-0.4,0.2-0.6,0.3c-0.2,0.1-0.3,0.3-0.4,0.5s-0.2,0.4-0.2,0.7c0,0.3,0.1,0.5,0.2,0.7
		c0.1,0.2,0.3,0.3,0.5,0.4c0.2,0.1,0.4,0.2,0.6,0.2c0.2,0,0.5,0.1,0.7,0.1c0.5,0,0.9-0.1,1.1-0.2c0.3-0.1,0.5-0.4,0.6-0.8h0
		c0.1,0.3,0.2,0.5,0.4,0.7s0.6,0.3,1.1,0.3c0.2,0,0.4,0,0.7-0.1c0.2,0,0.4-0.2,0.6-0.3l-0.1-0.1C123.7,31.1,123.6,31.1,123.5,31.2z
		 M121.1,29.7c0,0.3,0,0.5-0.1,0.7c-0.1,0.2-0.1,0.3-0.2,0.5c-0.1,0.1-0.2,0.2-0.3,0.3c-0.1,0.1-0.2,0.1-0.4,0.1
		c-0.2,0-0.4,0-0.5-0.1c-0.1-0.1-0.2-0.2-0.3-0.4c-0.1-0.1-0.1-0.3-0.1-0.4c0-0.1,0-0.3,0-0.4c0-0.3,0-0.5,0.1-0.7
		c0.1-0.2,0.2-0.3,0.3-0.4c0.1-0.1,0.3-0.2,0.5-0.3c0.2-0.1,0.4-0.2,0.5-0.2c0.1-0.1,0.2-0.1,0.3-0.2c0.1-0.1,0.1-0.1,0.1-0.2h0
		V29.7z"/>
	<path class="st13" d="M139.4,27.1c-0.2-0.4-0.4-0.7-0.7-1c-0.3-0.3-0.7-0.5-1.1-0.7c-0.4-0.2-0.9-0.3-1.4-0.3
		c-0.5,0-0.9,0.1-1.4,0.3s-0.8,0.4-1.1,0.7c-0.3,0.3-0.5,0.6-0.7,1c-0.2,0.4-0.3,0.8-0.3,1.2c0,0.4,0.1,0.9,0.3,1.2
		c0.2,0.4,0.4,0.7,0.7,1c0.3,0.3,0.7,0.5,1.1,0.7s0.9,0.3,1.4,0.3c0.5,0,0.9-0.1,1.4-0.3c0.4-0.2,0.8-0.4,1.1-0.7
		c0.3-0.3,0.5-0.6,0.7-1c0.2-0.4,0.3-0.8,0.3-1.2C139.7,27.9,139.6,27.5,139.4,27.1z M137.8,29.4c0,0.4-0.1,0.7-0.2,1
		c-0.1,0.3-0.2,0.5-0.5,0.7c-0.2,0.2-0.5,0.3-0.9,0.3c-0.4,0-0.6-0.1-0.9-0.3c-0.2-0.2-0.4-0.4-0.5-0.7c-0.1-0.3-0.2-0.6-0.2-1
		c0-0.4,0-0.7,0-1.1c0-0.4,0-0.7,0-1.1s0.1-0.7,0.2-1s0.2-0.5,0.5-0.7c0.2-0.2,0.5-0.3,0.9-0.3c0.4,0,0.6,0.1,0.9,0.3
		c0.2,0.2,0.4,0.4,0.5,0.7c0.1,0.3,0.2,0.6,0.2,1s0,0.7,0,1.1C137.8,28.7,137.8,29.1,137.8,29.4z"/>
	<path class="st13" d="M109.8,23.3c0.3,0,0.5-0.1,0.7-0.3c0.2-0.2,0.3-0.4,0.3-0.7c0-0.3-0.1-0.5-0.3-0.7c-0.2-0.2-0.4-0.3-0.7-0.3
		s-0.5,0.1-0.7,0.3c-0.2,0.2-0.3,0.4-0.3,0.7c0,0.3,0.1,0.5,0.3,0.7S109.5,23.3,109.8,23.3z"/>
	<path class="st13" d="M131,21.3h-2.7v0.2h1v4.9h0c-0.1-0.4-0.3-0.7-0.6-0.9c-0.3-0.2-0.6-0.3-1-0.3c-0.5,0-1,0.1-1.4,0.3
		s-0.7,0.5-0.9,0.8s-0.4,0.7-0.5,1c-0.1,0.4-0.2,0.7-0.2,1.1c0,0.4,0.1,0.8,0.2,1.2c0.1,0.4,0.4,0.7,0.6,1c0.3,0.3,0.6,0.5,1,0.7
		s0.8,0.3,1.2,0.3c0.4,0,0.8-0.1,1-0.3c0.3-0.2,0.5-0.5,0.6-0.9h0v1h2.6v-0.2H131V21.3z M129.3,29.3c0,0.4-0.1,0.7-0.2,1
		c-0.1,0.3-0.3,0.6-0.5,0.8s-0.5,0.3-0.9,0.3c-0.3,0-0.5-0.1-0.6-0.2c-0.2-0.1-0.3-0.3-0.3-0.6c-0.1-0.3-0.1-0.6-0.2-0.9
		c0-0.4,0-0.8,0-1.2c0-0.6,0-1,0.1-1.4c0-0.4,0.1-0.7,0.2-0.9c0.1-0.2,0.2-0.4,0.4-0.5c0.2-0.1,0.4-0.2,0.6-0.2
		c0.3,0,0.6,0.1,0.8,0.3c0.2,0.2,0.4,0.4,0.5,0.7c0.1,0.3,0.2,0.6,0.2,1c0,0.4,0,0.7,0,1C129.3,28.6,129.3,29,129.3,29.3z"/>
	<path class="st13" d="M78,27.3c0-0.2,0-0.4,0-0.6c0-0.2-0.1-0.5-0.2-0.7c-0.1-0.2-0.3-0.4-0.6-0.6c-0.3-0.2-0.7-0.2-1.2-0.2
		c-0.1,0-0.2,0-0.4,0c-0.2,0-0.3,0.1-0.5,0.2c-0.2,0.1-0.4,0.2-0.5,0.3s-0.3,0.3-0.5,0.6c-0.1-0.1-0.2-0.3-0.2-0.4
		c-0.1-0.1-0.2-0.2-0.4-0.4c-0.1-0.1-0.3-0.2-0.5-0.3c-0.2-0.1-0.5-0.1-0.8-0.1c-0.3,0-0.6,0-0.8,0.1c-0.2,0.1-0.4,0.2-0.6,0.3
		c-0.2,0.1-0.3,0.2-0.4,0.4s-0.2,0.2-0.2,0.3h0v-1h-2.6v0.2h0.9v5.6h-0.9v0.2h3.5v-0.2h-0.8v-3.4c0-0.2,0-0.4,0-0.6
		c0-0.2,0-0.3,0.1-0.4s0.1-0.2,0.1-0.3c0.1-0.1,0.1-0.2,0.2-0.3c0.3-0.3,0.6-0.5,1-0.5c0.2,0,0.4,0.1,0.6,0.2
		c0.2,0.2,0.3,0.5,0.3,0.9v4.5h-0.8v0.2h3.4v-0.2h-0.8V27c0-0.3,0-0.5,0.1-0.7c0.1-0.2,0.2-0.3,0.4-0.4c0.1-0.1,0.3-0.2,0.4-0.3
		c0.1-0.1,0.3-0.1,0.4-0.1c0.3,0,0.6,0.1,0.7,0.3c0.1,0.2,0.2,0.5,0.2,0.9v4.3h-0.8v0.2H79v-0.2H78V27.3z"/>
	<polygon class="st13" points="65.6,21.3 63,21.3 63,21.4 63.9,21.4 63.9,31.1 63,31.1 63,31.3 66.6,31.3 66.6,31.1 65.6,31.1 	"/>
	<path class="st13" d="M57.2,21h-0.4l-4.2,10.2h-1.2v0.2h2.6v-0.2h-1.2l1.6-3.8h3.4l1.6,3.8h-1.3v0.2h4.7v-0.2h-1.2L57.2,21z
		 M54.5,27.2l1.6-3.8l1.7,3.8H54.5z"/>
	<path class="st13" d="M85.7,26.1c-0.3-0.3-0.7-0.5-1.1-0.7s-0.9-0.3-1.4-0.3s-0.9,0.1-1.4,0.3s-0.8,0.4-1.1,0.7
		c-0.3,0.3-0.5,0.6-0.7,1s-0.3,0.8-0.3,1.2c0,0.4,0.1,0.9,0.3,1.2s0.4,0.7,0.7,1c0.3,0.3,0.7,0.5,1.1,0.7s0.9,0.3,1.4,0.3
		s0.9-0.1,1.4-0.3s0.8-0.4,1.1-0.7c0.3-0.3,0.5-0.6,0.7-1c0.2-0.4,0.3-0.8,0.3-1.2c0-0.4-0.1-0.8-0.3-1.2
		C86.2,26.7,86,26.4,85.7,26.1z M84.7,29.4c0,0.4-0.1,0.7-0.2,1c-0.1,0.3-0.2,0.5-0.5,0.7s-0.5,0.3-0.9,0.3s-0.6-0.1-0.9-0.3
		s-0.4-0.4-0.5-0.7c-0.1-0.3-0.2-0.6-0.2-1c0-0.4,0-0.7,0-1.1c0-0.4,0-0.7,0-1.1c0-0.4,0.1-0.7,0.2-1c0.1-0.3,0.2-0.5,0.5-0.7
		c0.2-0.2,0.5-0.3,0.9-0.3s0.6,0.1,0.9,0.3c0.2,0.2,0.4,0.4,0.5,0.7s0.2,0.6,0.2,1s0,0.7,0,1.1C84.8,28.7,84.7,29.1,84.7,29.4z"/>
	<path class="st13" d="M100.7,31.2c-0.1,0-0.2,0.1-0.3,0.1c-0.2,0-0.3-0.1-0.4-0.2c-0.1-0.1-0.1-0.3-0.1-0.5v-3.5
		c0-0.4-0.1-0.7-0.2-1c-0.1-0.3-0.3-0.5-0.5-0.6c-0.2-0.1-0.5-0.3-0.8-0.3c-0.3-0.1-0.6-0.1-1-0.1c-0.3,0-0.6,0-0.9,0.1
		c-0.3,0.1-0.5,0.2-0.8,0.3s-0.4,0.3-0.5,0.5c-0.1,0.2-0.2,0.4-0.2,0.7c0,0.2,0,0.3,0.1,0.4s0.1,0.2,0.2,0.2
		c0.1,0.1,0.2,0.1,0.3,0.1c0.1,0,0.2,0,0.3,0c0.1,0,0.1,0,0.2,0c0.1,0,0.2,0,0.3-0.1s0.2-0.1,0.2-0.2c0.1-0.1,0.1-0.2,0.1-0.3
		c0,0,0-0.1,0-0.2c0-0.1,0-0.2,0-0.2s0-0.2,0-0.2s0-0.1,0-0.1c0-0.3,0.1-0.4,0.2-0.5c0.2-0.1,0.3-0.1,0.6-0.1c0.3,0,0.6,0.1,0.7,0.3
		c0.1,0.2,0.2,0.4,0.2,0.7v0.9c0,0.2,0,0.3-0.1,0.4c-0.1,0.1-0.1,0.2-0.3,0.3s-0.3,0.2-0.6,0.3s-0.5,0.2-0.9,0.3
		c-0.2,0.1-0.5,0.2-0.7,0.2c-0.2,0.1-0.4,0.2-0.6,0.3s-0.3,0.3-0.4,0.5c-0.1,0.2-0.2,0.4-0.2,0.7c0,0.3,0.1,0.5,0.2,0.7
		c0.1,0.2,0.3,0.3,0.5,0.4c0.2,0.1,0.4,0.2,0.6,0.2c0.2,0,0.5,0.1,0.7,0.1c0.5,0,0.9-0.1,1.1-0.2c0.3-0.1,0.5-0.4,0.6-0.8h0
		c0.1,0.3,0.2,0.5,0.4,0.7c0.2,0.2,0.6,0.3,1.1,0.3c0.2,0,0.4,0,0.7-0.1c0.2,0,0.4-0.2,0.6-0.3L101,31
		C100.9,31.1,100.8,31.1,100.7,31.2z M98.3,29.7c0,0.3,0,0.5-0.1,0.7c-0.1,0.2-0.1,0.3-0.2,0.5c-0.1,0.1-0.2,0.2-0.3,0.3
		c-0.1,0.1-0.2,0.1-0.4,0.1c-0.2,0-0.4,0-0.5-0.1s-0.2-0.2-0.3-0.4s-0.1-0.3-0.1-0.4s0-0.3,0-0.4c0-0.3,0-0.5,0.1-0.7
		c0.1-0.2,0.2-0.3,0.3-0.4c0.1-0.1,0.3-0.2,0.5-0.3c0.2-0.1,0.4-0.2,0.5-0.2c0.1-0.1,0.2-0.1,0.3-0.2s0.1-0.1,0.1-0.2h0V29.7z"/>
	<polygon class="st13" points="91.2,27.7 92.7,25.5 93.5,25.5 93.5,25.3 91.5,25.3 91.5,25.5 92.5,25.5 91,27.5 89.8,25.5 
		90.7,25.5 90.7,25.3 87,25.3 87,25.5 87.7,25.5 89.8,28.8 88.1,31.1 87.2,31.1 87.2,31.3 89.5,31.3 89.5,31.1 88.4,31.1 90,29 
		91.3,31.1 90.4,31.1 90.4,31.3 93.9,31.3 93.9,31.1 93.4,31.1 	"/>
</g>
</svg>
