<?xml version="1.0" encoding="UTF-8"?>
<svg width="20px" height="20px" viewBox="0 0 20 20" version="1.1" xmlns="http://www.w3.org/2000/svg" xmlns:xlink="http://www.w3.org/1999/xlink">
        <path d="M10,0.833333333 C4.91666667,0.833333333 0.833333333,4.91666667 0.833333333,10 C0.833333333,15.0833333 4.91666667,19.1666667 10,19.1666667 C15.0833333,19.1666667 19.1666667,15.0833333 19.1666667,10 C19.1666667,4.91666667 15.0833333,0.833333333 10,0.833333333 Z M10,17.5 C5.83333333,17.5 2.5,14.1666667 2.5,10 C2.5,5.83333333 5.83333333,2.5 10,2.5 C14.1666667,2.5 17.5,5.83333333 17.5,10 C17.5,14.1666667 14.1666667,17.5 10,17.5 Z M14.1666667,10 C14.1666667,10.5 13.8333333,10.8333333 13.3333333,10.8333333 L10.8333333,10.8333333 L10.8333333,13.3333333 C10.8333333,13.8333333 10.5,14.1666667 10,14.1666667 C9.5,14.1666667 9.16666667,13.8333333 9.16666667,13.3333333 L9.16666667,10.8333333 L6.66666667,10.8333333 C6.16666667,10.8333333 5.83333333,10.5 5.83333333,10 C5.83333333,9.5 6.16666667,9.16666667 6.66666667,9.16666667 L9.16666667,9.16666667 L9.16666667,6.66666667 C9.16666667,6.16666667 9.5,5.83333333 10,5.83333333 C10.5,5.83333333 10.8333333,6.16666667 10.8333333,6.66666667 L10.8333333,9.16666667 L13.3333333,9.16666667 C13.8333333,9.16666667 14.1666667,9.5 14.1666667,10 Z"></path>
</svg>