<?xml version="1.0" encoding="utf-8"?>
<!-- Generator: Adobe Illustrator 22.0.1, SVG Export Plug-In . SVG Version: 6.00 Build 0)  -->
<svg version="1.1" id="Layer_1" xmlns="http://www.w3.org/2000/svg" xmlns:xlink="http://www.w3.org/1999/xlink" x="0px" y="0px"
	 viewBox="0 0 329 317" style="enable-background:new 0 0 329 317;" xml:space="preserve">
<style type="text/css">
	.st0{filter:url(#Adobe_OpacityMaskFilter);}
	.st1{fill:#FFFFFF;}
	.st2{mask:url(#mask-2_1_);fill:#FF9300;}
	.st3{fill:#DFDFE2;}
	.st4{fill:#FF9200;}
	.st5{fill:#FF9D12;}
	.st6{fill:#F47C06;}
	.st7{fill:#FF9300;}
	.st8{fill:#FF7C00;}
	.st9{fill:#EDAC66;}
	.st10{fill:#FF7000;}
	.st11{fill:#525379;}
	.st12{fill:#FF6D00;}
	.st13{fill:#FF9100;}
	.st14{fill:#FF4E00;}
	.st15{fill:#FF5300;}
	.st16{fill:#FCB042;}
	.st17{fill:#FF8500;}
	.st18{fill:#FFA017;}
	.st19{fill:#FF9000;}
	.st20{fill:#FF6A00;}
	.st21{filter:url(#Adobe_OpacityMaskFilter_1_);}
	.st22{mask:url(#mask-4_1_);fill:#FF9300;}
</style>
<title>Group 101</title>
<desc>Created with Sketch.</desc>
<g id="Administrador">
	<g id="Group-101" transform="translate(0.000000, -1.000000)">
		<g id="Group-3" transform="translate(268.000000, 72.761000)">
			<g id="Clip-2">
			</g>
			<defs>
				<filter id="Adobe_OpacityMaskFilter" filterUnits="userSpaceOnUse" x="0.9" y="0.7" width="60.1" height="60.1">
					<feColorMatrix  type="matrix" values="1 0 0 0 0  0 1 0 0 0  0 0 1 0 0  0 0 0 1 0"/>
				</filter>
			</defs>
			<mask maskUnits="userSpaceOnUse" x="0.9" y="0.7" width="60.1" height="60.1" id="mask-2_1_">
				<g class="st0">
					<polygon id="path-1_1_" class="st1" points="0.9,0.7 61,0.7 61,60.8 0.9,60.8 					"/>
				</g>
			</mask>
			<path id="Fill-1" class="st2" d="M30.9,0.7C14.3,0.7,0.9,14.1,0.9,30.7c0,16.6,13.5,30.1,30.1,30.1C47.5,60.8,61,47.3,61,30.7
				C61,14.1,47.5,0.7,30.9,0.7"/>
		</g>
		<path id="Fill-4" class="st3" d="M183,120.5c0.2-0.1,0.4-0.1,0.5-0.2C183.4,120.4,183.2,120.5,183,120.5"/>
		<path id="Fill-6" class="st3" d="M167.4,62.9c0-0.1,0.1-0.1,0.1-0.2c0.1-0.2,0.3-0.3,0.4-0.5c0.2-0.3,0.4-0.5,0.5-0.8
			c-0.3,0.5-0.6,0.9-1,1.3C167.5,62.8,167.5,62.9,167.4,62.9"/>
		<path id="Fill-8" class="st4" d="M156.7,239.6c6.7-2,13.1-4.5,19.3-7.6c-2.3-4.3-4.6-8.6-6.5-13.1
			C166.3,226.5,161.9,233.3,156.7,239.6"/>
		<path id="Fill-10" class="st3" d="M182.9,120.6c-0.1,0-0.2,0.1-0.2,0.1C182.8,120.6,182.9,120.6,182.9,120.6
			C183,120.5,182.9,120.6,182.9,120.6"/>
		<path id="Fill-12" class="st5" d="M203.7,186.9c0.3,0,0.6,0.1,0.9,0.1c0.3,0,0.6,0.1,0.9,0.1c0.5-0.2,0.7-0.5,0.8-0.8
			c0-0.1,0-0.2,0-0.2c0-0.3,0-0.5-0.1-0.8c-0.1-0.3-0.1-0.6-0.1-0.8c0-0.1,0-0.2,0-0.4c0-0.4,0.1-0.7,0.3-1c0.2-0.6,0.6-1.2,0.5-1.8
			c0-0.4-0.2-0.8-0.6-1.3c-0.7-0.8-1.1-1.6-1.3-2.3c0-0.2-0.1-0.3-0.1-0.5c-0.1-0.3-0.1-0.6-0.1-0.9c0-2.1,1.1-4.2,1.4-6.4
			c0-0.2,0-0.3,0-0.5c0-0.2,0-0.3,0-0.5c0-0.2,0-0.3,0-0.5c0-0.2,0-0.3-0.1-0.5c-0.1-0.9-0.6-1.8-1.4-2.8c-0.1-0.1-0.2-0.2-0.3-0.3
			c-0.1-0.1-0.2-0.2-0.3-0.3c-4.8-4.4-21.1-8.8-24.6-14.2c7.3,5.2,18.4,9,22.6,10.6c0.1,0,0.2,0.1,0.3,0.1c0.2,0.1,0.4,0.1,0.5,0.2
			c0.1,0,0.2,0.1,0.2,0.1c0,0,0-0.1,0-0.1c0-0.2,0-0.4-0.1-0.7c0-0.2-0.1-0.5-0.1-0.8c-0.1-0.5-0.1-1-0.2-1.6c-0.4-3.2-1-8-1.4-12.2
			c0-0.3,0-0.5-0.1-0.8c0-0.5-0.1-1-0.1-1.5c0-0.7-0.1-1.4-0.1-2c0-0.2,0-0.4,0-0.6c0-1.5,0-3,0-4.4c0-0.7,0-1.5,0-2.2
			c0-0.7,0-1.5,0-2.2c-0.1-5.9-0.6-11.8-1.5-17.6c-0.1-0.7-0.3-1.5-0.4-2.2c-0.4-2.2-0.9-4.3-1.5-6.5c-0.8-2.3-1.6-4.6-2.6-6.8
			c-1-2.2-2-4.4-3.2-6.6c-0.4-0.8-0.9-1.3-1.4-1.8c-0.1-0.1-0.3-0.2-0.4-0.3c-0.4-0.3-0.9-0.5-1.4-0.8c0.1,0.5-0.2,1-0.5,1
			c-3.7,0.3-6.6,2.4-9.6,4.1c-3,1.7-4.8,3.1-7.6,3.6c0,0,0,0,0,0c-0.2,0.3-0.7,0.7-1.3,1.3c-1.7,1.5-4.7,3.9-7.8,7
			c-0.4,0.4-0.9,0.9-1.3,1.4c-0.8,0.8-1.5,1.7-2.3,2.6c-0.7,0.9-1.4,1.8-2.1,2.8c-1.2,5.5,4.1,15.8,5,17.6c0,0.1,0,0.1,0,0.2
			c0,0.1,0,0.2,0.1,0.3c0,0.1,0,0.2,0.1,0.3c0,0.1,0,0.1,0,0.2c0,0,3.7-1.1,4.5-1.4c0,0,0.1,0,0.1,0c3-1.3,6.4-5.1,9.5-6.4
			c0.2-0.1,0.4-0.2,0.5-0.2c0.1,0,0.1-0.1,0.2-0.1c0.1-0.1,0.2-0.1,0.3-0.2c0.1,0,0.1-0.1,0.2-0.1c0.1,0,0.2-0.1,0.3-0.1
			c0.1,0,0.1-0.1,0.2-0.1c0.1,0,0.2-0.1,0.3-0.1c0.1,0,0.1-0.1,0.2-0.1c0.1,0,0.2-0.1,0.2-0.1c0.1,0,0.1-0.1,0.2-0.1
			c0.1,0,0.1-0.1,0.2-0.1c0.1,0,0.1-0.1,0.2-0.1s0.1-0.1,0.2-0.1c0.1-0.1,0.2-0.1,0.4-0.2l0.2-0.1c0.1-0.1,0.2-0.1,0.3-0.2
			c0.1,0,0.1-0.1,0.2-0.1c0.1,0,0.2-0.1,0.2-0.1c0.1,0,0.1-0.1,0.2-0.1c0.1,0,0.2-0.1,0.2-0.1c0.1,0,0.1-0.1,0.2-0.1
			c0.1,0,0.2-0.1,0.2-0.1c0.1,0,0.1-0.1,0.2-0.1c0.1,0,0.2-0.1,0.2-0.1c0.1,0,0.1-0.1,0.2-0.1c0.1,0,0.2-0.1,0.3-0.1
			c0.1,0,0.2-0.1,0.2-0.1c0.1,0,0.2-0.1,0.3-0.1c0.1,0,0.2-0.1,0.2-0.1c0.1,0,0.2-0.1,0.2-0.1c0,0,0,0,0.1,0l0,0l0,0
			c0.2-0.1,0.4-0.1,0.5-0.2c0.3,0,0.5,0,0.7,0.3c0.3,0.6-0.1,1-0.6,1.4c-1.7,1.2-1.1,1.2-2.9,2.3c-0.4,0.2-0.8,0.6-1.1,1
			c-2.7,3.4-6.7,5.6-10.9,6.6l-7.5,1.8c-0.7,1.9-1.5,4.2-2.5,6.7c-0.2,0.4-0.3,0.8-0.5,1.3c-0.3,0.9-0.7,1.7-1.1,2.6
			c-2.9,7-6.4,14.8-8.6,19.9c-0.3,0.6-0.5,1.2-0.8,1.8c-0.1,0.3-0.3,0.7-0.4,0.9c-0.4,0.9-0.7,1.6-0.8,2.1c-0.4,1.1-0.8,2.2-1.1,3.3
			c-0.5,1.7-0.9,3.4-1.3,5.1c-0.4,1.7-0.9,3.4-1.6,5c-0.2,0.4-0.4,0.8-0.6,1.2c-0.2,0.4-0.4,0.8-0.6,1.2c-0.2,0.4-0.3,0.9-0.3,1.3
			c0,0.6,0.3,1.2,0.7,1.7c0.4,0.5,1,0.8,1.7,0.8l0,0c0,0,0,0,0.1,0C164.1,189.2,183.1,185.1,203.7,186.9"/>
		<path id="Fill-14" class="st6" d="M154.5,51.3c-0.3-0.1-0.6-0.2-0.8-0.2c-0.2-0.1-0.6-0.2-0.7-0.3c-13.9-5.7-17.4-3.8-18.3-2.9
			c-0.1,0.1-0.1,0.2-0.2,0.3c-0.1,0.3-0.2,0.5-0.2,0.8c0,0.3-0.1,0.5,0,0.8c0,0.5,0.2,1.1,0.5,1.6c0.1,0.2,0.3,0.4,0.4,0.6
			c0.5,0.5,1,0.8,1.5,0.9c0.7,0.1,1.4,0.2,2,0.2c0.2,0,0.4,0,0.6,0c2.5,0,5.2-0.3,12.8,1.8h0c0.5-0.9,1-1.8,1.5-2.7
			C154,51.7,154.3,51.4,154.5,51.3"/>
		<path id="Fill-16" class="st7" d="M204.3,164.6c-0.2-0.5-0.4-1-0.6-1.5c-0.1-0.2-0.1-0.3-0.2-0.5c-0.2-0.6-0.3-1-0.3-1l-0.8-0.5
			c-4.2-1.6-15.3-5.4-22.6-10.6C183.2,155.9,199.5,160.3,204.3,164.6"/>
		<path id="Fill-18" class="st8" d="M98.6,143.7c0.6-1.3-2.6-2.5-2.6-2.5c-2.4-0.7-2.6-4.4-0.7-3.7c3.6,1.2,5-0.2,10.1-1.1
			c1.5-0.3,5.6,0.9,5.6,0.9l27.5-5.8L154,116l2.7-15.8c0.1-0.5-0.2-1-0.8-1.1l-27-5.7c0,0-2.8,17.3-3.6,20.9
			c-0.1,0.6-0.5,1.8-1.6,2.1c-1,0.3-1.8-0.1-2.5-0.9c-0.1-0.1-0.1-0.2-0.2-0.3c-1.8-2.5-2.1-2.6-4.4-0.3c-0.8,0.8-1.7,1.1-2.7,0.7
			c-0.1,0-0.1-0.1-0.2-0.1c-0.6-0.7-1.1-1.5-1.9-1.9c-1.3-0.6-1.5-1.6-1.3-2.9c0.5-2.2,3.6-20.4,3.6-20.4L88.9,85
			c0.3,0.1,0.6,0.4,0.5,0.7l-12.1,61.6c0,0,0.1,0,0.2,0.1c0.1,0,0.1,0,0.2,0.1l11.4,2.1C91.4,149.3,96.5,148.2,98.6,143.7"/>
		<path id="Fill-20" class="st8" d="M114.6,148.1c0,0-3.1,2.7-6.7,4.9l35.7,6.5c0.2,0,0.4,0.1,0.6,0c0.4,0,0.8-0.1,1.2-0.3
			c0.5-0.2,1-0.6,1.3-1.1c0.2-0.3,0.4-0.7,0.4-1.1l1.3-7.6l1.3-7.6l-5.7,4.9L114.6,148.1z"/>
		<path id="Fill-22" class="st9" d="M70.1,138.3l11.3-53.4c0,0,0,0.1,0,0.1c0,0,0,0.1,0,0.1L70.1,138.3c0,0.1,0,0.2,0,0.3
			c0,0,0,0,0,0C70.1,138.5,70.1,138.4,70.1,138.3"/>
		<path id="Fill-24" class="st9" d="M70.4,139.4C70.4,139.4,70.4,139.4,70.4,139.4l6.7,7.8c0,0,0,0,0,0c0,0,0,0,0,0L70.4,139.4
			C70.4,139.4,70.4,139.4,70.4,139.4"/>
		<path id="Fill-26" class="st9" d="M70.2,139.1C70.2,139.1,70.2,139.1,70.2,139.1C70.2,139.1,70.2,139.1,70.2,139.1"/>
		<path id="Fill-28" class="st10" d="M215.5,275.7c0.4-0.2,0.9-0.4,1.4-0.6c0.2-0.1,0.4-0.2,0.6-0.3c2.3-1.1,5.3-2.4,5.3-2.4
			s1.3-0.8,3-1.6c0.6-0.3,1.3-0.7,1.9-1c1.1-0.6,2.2-1.1,3.1-1.4c0.2,0.1,0.5,0.1,0.7,0.2c0.5-0.4,0.7-0.9,0.7-1.4
			c0-0.1,0-0.2,0-0.3c0-0.2-0.1-0.4-0.1-0.6c-0.2-0.6-0.4-1.2-0.4-1.9c0-0.2,0-0.4,0.1-0.7c0-0.1,0.1-0.2,0.1-0.4
			c0-0.1,0-0.2-0.1-0.4c-0.1-0.4-0.4-0.6-0.7-0.7c-0.2-0.1-0.5-0.2-0.7-0.3c-0.1,0-0.1-0.1-0.2-0.1c-0.4-0.2-0.6-0.5-0.7-0.8
			c0-0.1-0.1-0.2-0.1-0.3c-0.1-0.3-0.1-0.5-0.1-0.8c0-0.2-0.1-0.5-0.2-0.8c0-0.1-0.1-0.2-0.1-0.3c-0.2-0.4-0.5-0.8-0.8-1
			c-1-0.5-1.8-1.1-2.5-1.6c-0.3-0.3-0.6-0.5-0.9-0.7c-0.8-0.7-1.3-1.3-1.6-1.8c-0.1-0.1-0.2-0.3-0.2-0.4c-0.1-0.1-0.1-0.2-0.2-0.2
			c-0.8-1-1.6-2-2.4-2.9c-3.5-4.1-7.6-7.8-11.5-11.5c-2.8-2.7-5-5.7-6.4-9.1c-0.4-1.1-0.8-2.3-1.1-3.5c-0.1-0.4-0.2-0.8-0.2-1.2
			c-0.2-1.3-0.3-2.5-0.2-3.9c0-1.4,0.1-2.7,0.2-4.1c0.2-2.7,0.5-5.4,0.8-8.1c0.2-1.3,0.3-2.7,0.5-4c0.2-1.5,0.4-3,0.6-4.5
			c0.5-3.7,1-7.5,0.8-11.3c0-0.8-0.1-1.5-0.2-2.3c-20.5-1.8-39.6,2.3-60.1,1.6c-1.3,4.7-2.6,9.4-4,14c-1.3,4.7-2.7,9.3-4.1,14
			c-2.7,9.3-5.5,18.7-8.3,28c-2.3,7.7-4.6,15.5-6.9,23.2c-0.6,2-1.3,4-2.6,5.7c-0.8,1.1-1.8,2.6-0.4,3.9c0.4-0.3,1.1-0.3,1.9-0.1
			c1.9,0.9,4.3,1.6,5.8,1.8c2,0.4,5.4,0.6,8,2.1c0.1,0.2,0.2,0.3,0.2,0.5c1.9,0.1,4,0.3,4.4-1.9c0.3-1.4-0.5-2.7-0.2-4.2
			c0.2-1.4,1.5-3.1,1.4-4.4c-0.3-2.7,0.4-4.7,1.7-6.8c2-3.4,4.3-6.6,6.4-9.9c0.7-1.1,1.2-2.1,1.2-3.5c-1.7-0.9-1.9-2.2-1.4-3.9
			c0.4-1.5,1.1-2.9,2.2-3.8c2-1.6,2.7-3.6,3-5.9c0.4-3.5,2.6-6,4.8-8.4c2.1-2.2,3.4-4.6,3.1-7.7c-0.2-2.6,0.3-5,1.5-7.3
			c1.3-2.4,0.4-4-2.4-3.7c-5.3,0.4-4.8-1.2-2.8-5c0.6-1.2,1.2-2.5,1.7-3.7c0.9-2.1,0.9-4.1-0.4-6.1c-0.4-0.7-0.9-1.5-1.1-2.3
			c-0.3-1.3,0.3-2.4,1.6-2.6c1.2-0.2,1.7,0.7,1.7,1.8c0.1,3.9,2.1,7,4.2,10.1c2.1,3.1,4,6.2,5.7,9.5c1.1,2.2,1.5,4.3,0.3,6.5
			c-0.1,0.2-0.1,0.3-0.2,0.5c1.9,4.5,4.2,8.8,6.5,13.1c1.4,2.5,2.8,5,4.1,7.5c2.9,5.5,6.7,10.2,11.7,14.1c5.1,4,10.1,8,14.8,12.5
			c2.9,2.8,5.3,4.4,5.9,8.6c0.1,0.9,0.4,1.7,1.2,1.9c0.3,0.1,0.6,0.1,0.9,0c0-0.1,0.1-0.2,0.2-0.3
			C214.9,276.2,215.2,275.9,215.5,275.7"/>
		<path id="Fill-30" class="st11" d="M217.6,280.6L217.6,280.6c0,0.1,0,0.1,0,0.2C217.6,280.7,217.6,280.7,217.6,280.6L217.6,280.6z
			"/>
		<path id="Fill-32" class="st11" d="M225.5,290.9L225.5,290.9C225.5,290.9,225.5,290.9,225.5,290.9
			C225.5,290.9,225.5,290.9,225.5,290.9C225.5,290.9,225.5,290.9,225.5,290.9"/>
		<path id="Fill-38" class="st12" d="M169.7,218.5c1.2-2.2,0.8-4.3-0.3-6.5c-1.7-3.3-3.6-6.4-5.7-9.5c-2.1-3.1-4.1-6.2-4.2-10.1
			c0-1.1-0.5-2-1.7-1.8c-1.3,0.2-1.9,1.3-1.6,2.6c0.2,0.8,0.6,1.6,1.1,2.3c1.2,2,1.3,4,0.4,6.1c-0.6,1.3-1.1,2.5-1.7,3.7
			c-2,3.8-2.6,5.4,2.8,5c2.8-0.2,3.8,1.3,2.4,3.7c-1.3,2.3-1.8,4.7-1.5,7.3c0.3,3.1-1,5.4-3.1,7.7c-2.2,2.4-4.4,4.9-4.8,8.4
			c-0.3,2.3-1,4.3-3,5.9c-1.1,0.9-1.8,2.3-2.2,3.8c-0.5,1.7-0.2,3.1,1.4,3.9c0.1-0.1,0.2-0.3,0.3-0.3c2.8-3.7,5.5-7.4,8.5-10.9
			c0,0,0.1-0.1,0.1-0.1c5.3-6.3,9.6-13.1,12.8-20.7C169.5,218.8,169.6,218.6,169.7,218.5"/>
		<path id="Fill-40" class="st13" d="M124.9,279.2c-1.5-0.3-3.8-0.9-5.8-1.8c-0.7-0.2-1.4-0.2-1.9,0.1c-0.3,0.2-0.5,0.5-0.4,1
			c0.6,2.3-0.5,1-0.7,3c1.2,0.6,2.4,1.1,3.5,1.7c0.7,0.3,1,1.1,0.7,1.8c-0.5,1-1.3,0.5-2,0.2c-1-0.4-1.8-1.2-3-0.8
			c-0.2,0.2-0.3,0.6-0.5,1c0,0.1,0,0.2,0,0.3c1.4,0.6,2.6,1.5,3.8,2.4c0.5,0.3,0.8,0.7,0.7,1.3c-0.2,0.6-0.7,0.5-1.3,0.6
			c-1.5,0.1-2.7-0.9-4-1.4c-0.3,0.6-0.7,1.2-0.5,1.9c1,0.4,1.9,0.9,2.9,1.3c0.9,0.4,1.7,0.9,1.3,1.8c-0.4,0.8-1.4,0.7-2.3,0.3
			c-2.9-1.2-2.3-1.3-3,0.3c-0.1,0.2-0.1,0.2-0.1,0.4c1,0.5,1.9,0.9,2.9,1.4c0.7,0.4,1.2,0.9,0.9,1.6c-0.3,0.9-1.1,0.8-1.9,0.5
			c-0.8-0.3-1.6-0.7-2.4-1.1c-0.3,0.7-0.6,1.4-0.8,2.2c-0.7,2.7-4,3.8-6.2,2.1c-1.6-1.2-3.4-2.3-5.4-3.1c-2.2-0.9-4.1-0.8-5.8,0.6
			c-1.3,1-2.5,2.1-3,3.5c-0.2,0.4-0.1,0.8-0.1,1.2c8.8,3.7,17.5,7.5,26.1,11.6c0.1-0.1,0.1-0.3,0.2-0.4c0.7-1.2,1.1-2.6,1.1-4
			c0-0.3,0.1-1.4,0.1-1.5c3.2-9.4,7-15.8,12.5-24.1c0.3-0.5,0.6-0.9,1.3-1c1.6-0.2,1.8-1.1,1.3-2.2c-0.1-0.2-0.1-0.3-0.2-0.5
			C130.4,279.8,126.9,279.5,124.9,279.2"/>
		<path id="Fill-42" class="st14" d="M119.4,289.2c0.2-0.5-0.2-0.9-0.7-1.3c-1.2-0.9-2.4-1.8-3.8-2.4c0,0,0,0,0,0
			c-0.3,0.9-0.5,1.9-0.8,2.8c1.3,0.5,2.5,1.4,4,1.4C118.6,289.7,119.2,289.7,119.4,289.2"/>
		<path id="Fill-44" class="st14" d="M118.3,285.1c0.8,0.3,1.6,0.8,2-0.2c0.5-0.9-0.1-1.6-1-2c-1.1-0.5-2.1-1-3.2-1.5
			c-0.5,0.9-0.9,1.8-0.8,2.8c0,0,0,0,0,0C116.5,283.8,117.3,284.7,118.3,285.1"/>
		<path id="Fill-46" class="st14" d="M115.5,293.8c0.9,0.4,1.9,0.5,2.3-0.3c0.4-0.9-0.4-1.5-1.3-1.8c-1-0.4-2-0.9-2.9-1.3
			c-0.4,1.2-0.7,1.2-0.5,2.7C113.8,293.2,114.4,293.3,115.5,293.8"/>
		<path id="Fill-48" class="st14" d="M116.2,297.5c0.3-0.7-0.2-1.3-0.9-1.6c-1-0.5-1.9-0.9-2.9-1.4c-0.4,0.7-0.8,1.5-0.6,2.4
			c0.8,0.4,1.6,0.8,2.4,1.1C115.1,298.3,115.9,298.3,116.2,297.5"/>
		<path id="Fill-50" class="st14" d="M90.4,303.3c-0.9,1.1-0.2,1.6,1,2.1c7.7,3.6,15.5,7.1,23.2,10.8c2,1,2,0,2-1.3
			C108,310.8,99.3,307,90.4,303.3C90.5,303.3,90.5,303.3,90.4,303.3"/>
		<path id="Fill-52" class="st14" d="M87.3,317.1c0,0.4,7.2,0.7,16.1,0.7s16.1-0.3,16.1-0.7l-16.1-0.7
			C94.5,316.3,87.3,316.7,87.3,317.1"/>
		<path id="Fill-54" class="st14" d="M218.6,315.7c0,0.4,7.2,0.7,16.1,0.7s16.1-0.3,16.1-0.7l-16.1-0.7
			C225.8,315,218.6,315.3,218.6,315.7"/>
		<path id="Fill-56" class="st14" d="M223.5,285.6c0.2-0.1,0.5-0.2,0.7-0.4c0.7-0.4,1.4-0.8,1.8-1.4c0.1-0.1,0.2-0.2,0.2-0.3
			c0.1-0.2,0.3-0.4,0.2-0.7c0-0.1,0-0.2-0.1-0.4c-0.1-0.1-0.1-0.1-0.2-0.2c-0.3-0.3-0.7-0.2-1.2-0.1c-0.4,0.1-0.8,0.2-1.2,0.3
			c-0.4,0.1-0.8,0.3-1.3,0.4c-0.8,0.3-1.7,0.6-2.3,1c0.6,0.8,1.1,1.6,1.7,2.4c0.3-0.2,0.7-0.3,1-0.5
			C223.1,285.7,223.3,285.7,223.5,285.6"/>
		<path id="Fill-58" class="st14" d="M220.7,281.6c0.2-0.1,0.3-0.2,0.5-0.3c0.5-0.2,1-0.5,1.3-0.7c0.4-0.2,0.8-0.4,1.1-0.7
			c0.1-0.1,0.1-0.2,0.2-0.3c0-0.1,0-0.2,0-0.3c0-0.1,0-0.2-0.1-0.3c-0.2-0.4-0.4-0.6-0.6-0.7c-0.1,0-0.2-0.1-0.3-0.1
			c-0.4-0.1-0.8,0.1-1.3,0.3c-1.1,0.5-2.8,1.6-3.9,2.1h0l0,0c0,0.1,0,0.1,0.1,0.2c0.4,0.9,0.8,1.6,1.6,2.2
			C219.4,282.4,220,282,220.7,281.6"/>
		<path id="Fill-60" class="st14" d="M226.7,288.8c0.2-0.1,0.5-0.2,0.7-0.4c0.2-0.1,0.3-0.2,0.5-0.3c0.4-0.3,0.8-0.7,0.8-1.1
			c0-0.2,0-0.4-0.1-0.6c-0.1-0.1-0.1-0.2-0.2-0.3c-0.1-0.1-0.1-0.1-0.2-0.2c-0.5-0.3-1.2,0-1.8,0.3c-0.9,0.5-1.9,1-2.9,1.4
			c0.2,0.3,0.3,0.5,0.4,0.7c0.2,0.6,0.3,1,1.1,1.9c0,0,0,0,0,0C225.7,289.5,226.1,289.1,226.7,288.8"/>
		<path id="Fill-62" class="st14" d="M229.9,292c0.6-0.3,1-0.7,1-1.3c0-0.1,0-0.2,0-0.3c0-0.1-0.1-0.2-0.1-0.3
			c-0.1-0.2-0.2-0.3-0.3-0.4c-0.2-0.1-0.4-0.2-0.7-0.2c-0.3,0-0.5,0.1-0.8,0.2c-0.9,0.4-2.1,0.8-3.1,1.3c0,0-0.1,0-0.1,0.1
			c0,0,0,0,0,0c0.3,0.8,0.6,1.9,1.4,2.3c0.2-0.1,0.4-0.2,0.7-0.3C228.5,292.8,229.3,292.3,229.9,292"/>
		<path id="Fill-64" class="st14" d="M239.4,306.8l-5.1,5.7l-7.6,0.6l-7.6,0.6c-0.1,0-0.1,0-0.2,0.1c-0.1,0.1-0.2,0.2-0.2,0.3
			c0,0.5,0.4,1,1,0.9l15.2-0.8l10.1-11.9c0.3-0.3,0.3-0.8,0-1.1l-0.2-0.2c-0.1-0.1-0.3-0.1-0.4,0l0,0v0L239.4,306.8z"/>
		<path id="Fill-66" class="st14" d="M232,305.8c0.4,0.2,0.8,0.3,1.2,0.6c0.1,0.1,0.2,0.1,0.2,0.1c0-0.1-1.4-1.2-2.6-1.9
			c-0.4-0.2-0.9-0.4-1.2-0.5c-0.2-0.1-0.5-0.1-0.7-0.1c0,0,0,0,0,0c-0.3,0.1-0.5,1.1-0.5,1.1s1.3,0.1,2.8,0.5
			C231.4,305.6,231.7,305.7,232,305.8"/>
		<path id="Fill-68" class="st15" d="M172.3,75.8c0-0.1-0.1-0.1-0.1-0.2c0,0,0,0,0,0c0-0.1-0.1-0.1-0.1-0.2c0,0,0,0,0,0
			c0-0.1-0.1-0.1-0.1-0.2c0,0,0,0,0,0c0-0.1-0.1-0.1-0.1-0.2c0,0,0,0,0,0c0-0.1-0.1-0.1-0.1-0.2c0,0,0,0,0,0c0-0.1,0-0.1,0-0.2l0,0
			c0-0.1,0-0.1,0-0.2c0,0,0,0,0,0c0-0.1,0-0.1,0-0.2c0,0,0,0,0,0c0-0.3,0.1-0.7,0-1c0-0.1,0-0.1,0-0.2l0-0.1c0-0.1,0-0.2,0-0.3
			c0,0,0-0.1,0-0.1c0-0.1,0-0.2,0-0.2c0-0.1,0-0.1,0-0.2c0,0,0-0.1,0-0.1l0-0.2c0,0,0-0.1,0-0.1c0-0.1,0-0.1,0-0.2c0,0,0-0.1,0-0.1
			c0-0.1,0-0.1,0-0.2c0,0,0-0.1,0-0.1c0-0.1,0-0.2,0-0.3c0,0,0,0,0,0c0-0.1,0-0.2,0-0.2c0,0,0-0.1,0-0.1c0-0.1,0-0.1,0-0.2
			c0,0,0-0.1,0-0.1c0-0.1,0-0.1,0-0.2c0,0,0-0.1,0-0.1c0-0.1,0-0.1-0.1-0.2c0,0,0-0.1,0-0.1c0-0.1,0-0.1-0.1-0.2c0,0,0-0.1,0-0.1
			c0-0.1-0.1-0.2-0.1-0.3c-0.6-1.3-0.2-2.2,0.6-3c0.7-0.8,2.7-0.9,3.7-0.4c1,0.6,1.9,1.2,2,2.5c0.1,0.9,0.3,1.8,0.1,2.8
			c-0.3,2,0.4,3.2,2.3,3.8c0.9,0.3,1.8,0.5,2.6,0.7c0.5,0,0.9,0,1.4,0c0.2,0,0.3,0,0.5-0.1c0.9-0.1,1.6-0.5,2.3-1.1
			c0.4-0.3,0.6-0.8,0.6-1.3c0-0.2-0.1-0.3-0.1-0.5c-0.3-0.6-0.8-0.3-1.2-0.3c-0.5,0-0.8,0-1.1-0.2c-0.1,0-0.1-0.1-0.2-0.2
			c-0.2-0.2-0.3-0.5-0.5-0.9c0-0.2-0.1-0.3-0.1-0.5c-0.1-0.5-0.1-0.9,0-1.3c0.1-0.6,0.3-1.1,0.5-1.6c0.3-0.6,0.5-1.2,0.7-1.8
			c0.4-1.2,0.7-2.4,0.9-3.6c0.1-0.6,0.2-1.2,0.2-1.9c0.1-0.8,0.1-1.6,0.1-2.3c0-0.4-0.1-0.7-0.1-1.1c0-0.4,0-0.8-0.1-1.1
			c-0.3,0.1-0.7,0.2-1.2,0.2c-1.3,0.1-2.6,0.2-3.4,0.3c-4.3-0.1-8.3-0.7-12.2-1.5c0.1,0.1,0.1,0.3,0.2,0.4c0,0,0,0.1,0.1,0.1
			c0,0.1,0.1,0.2,0.1,0.3c0,0.1,0,0.1,0.1,0.2c0,0.1,0.1,0.2,0.1,0.3c0,0,0,0.1,0,0.1c0,0.1,0,0.2,0.1,0.3c0,0,0,0.1,0,0.1
			c0,0.1,0,0.3,0.1,0.4c0,0,0,0,0,0.1c0,0.1,0,0.2,0,0.4c0,0,0,0.1,0,0.1c0,0.1,0,0.2,0,0.3c0,0.1,0,0.1,0,0.2c0,0.1,0,0.2,0,0.3
			c0,0.1,0,0.1,0,0.1c0,0.1,0,0.2-0.1,0.3c0,0,0,0.1,0,0.1c0,0.1-0.1,0.3-0.1,0.4c0,0,0,0.1,0,0.1c0,0.1-0.1,0.2-0.1,0.3
			c0,0.1,0,0.1-0.1,0.1c0,0.1-0.1,0.2-0.1,0.3c0,0.1,0,0.1-0.1,0.2c0,0.1-0.1,0.2-0.1,0.3c0,0-0.1,0.1-0.1,0.1c0,0,0,0,0,0.1
			c0,0-0.1,0.1-0.1,0.1c-0.1,0.1-0.1,0.2-0.2,0.3l0,0c-0.2,0.3-0.3,0.5-0.5,0.8c-0.1,0.2-0.3,0.4-0.4,0.5c-0.1,0.1-0.1,0.1-0.1,0.2
			c0,0-0.1,0.1-0.1,0.1c0,0.1-0.1,0.1-0.1,0.2c0,0-0.1,0.1-0.1,0.1c0,0.1-0.1,0.1-0.1,0.2c0,0.1-0.1,0.1-0.1,0.2
			c0,0.1-0.1,0.1-0.1,0.2c0,0.1-0.1,0.1-0.1,0.2c0,0.1-0.1,0.1-0.1,0.2c0,0.1-0.1,0.1-0.1,0.2c0,0.1,0,0.1-0.1,0.2
			c0,0.1,0,0.1-0.1,0.2c0,0.1,0,0.1-0.1,0.2c0,0.1,0,0.1-0.1,0.2c0,0.1,0,0.1-0.1,0.2c0,0.1,0,0.1,0,0.2c0,0.1,0,0.1,0,0.2
			c0,0.1,0,0.1,0,0.2c0,0.1,0,0.1,0,0.2c0,0.1,0,0.1,0,0.2c0,0.1,0,0.1,0,0.2c0,0.1,0,0.1,0,0.2c0,0.1,0,0.1,0,0.2
			c0,0.1,0,0.1,0,0.2c0,0.1,0,0.1,0,0.2c0,0,0,0.1,0,0.2c0,0.1,0,0.2,0,0.2c0,0,0,0.1,0,0.1c0,0.1,0,0.2,0,0.3c0,0,0,0.1,0,0.1
			c0,0.1,0,0.3,0,0.4c0.3,1.8,0.1,3.6,0.5,5.3c0.4,1.5-0.4,2.5-1.6,3.2c-1.5,0.8-1.8,0.6-3-0.7c-0.8-0.8-1-1.8-1.5-2.7
			c-1.5-2.9-1.7-3-4.8-2.4c-1.3,0.3-2.5,0.7-4,0.7c-1.2-3-0.6-6.3-1.5-9.3c-0.4-0.1-0.6,0.4-0.9,0.5c-0.3,0.5-0.7,1-1,1.5
			c-1,1.5-2,3-2.9,4.5c0.2,0.2,0.3,0.4,0.4,0.5c0,0,0.1,0.1,0.1,0.1c1.5,0.6,2.2,0.8,2.4,1.3c0.1,0.1,0.1,0.3,0.1,0.4
			c0,0.5-0.2,1.3-0.5,2.5c0,0.1-0.9,2.8-1,5.8c0,0.7,0,1.3,0.1,2c0.1,0.7,0.3,1.3,0.5,1.9c0.4,0.9,0.9,1.8,1.7,2.4
			c2.6,1.9,5.1,3,7.4,3.5c1.7,0.4,3.3,0.4,4.7,0.3c4.3-0.5,7.4-2.9,9.1-4.6c0.3-0.3,0.5-0.6,0.6-0.9c0.1-0.3,0.2-0.7,0.2-1.1v0
			C172.6,80.8,172.2,78.2,172.3,75.8"/>
		<path id="Fill-70" class="st16" d="M150.3,62.4c0.8,3.1,0.3,6.3,1.5,9.3c1.5,0,2.8-0.4,4-0.7c3.1-0.6,3.2-0.5,4.8,2.4
			c0.5,0.9,0.7,1.9,1.5,2.7c1.2,1.3,1.5,1.5,3,0.7c1.3-0.7,2-1.8,1.6-3.2c-0.4-1.8-0.3-3.6-0.5-5.3c0-0.1,0-0.3,0-0.4
			c0,0,0-0.1,0-0.1c0-0.1,0-0.2,0-0.3c0,0,0-0.1,0-0.1c0-0.1,0-0.2,0-0.2c0,0,0-0.1,0-0.1c0-0.1,0-0.1,0-0.2c0-0.1,0-0.1,0-0.2
			c0-0.1,0-0.1,0-0.2c0-0.1,0-0.1,0-0.2c0-0.1,0-0.1,0-0.2c0-0.1,0-0.1,0-0.2c0-0.1,0-0.1,0-0.2c0-0.1,0-0.1,0-0.2
			c0-0.1,0-0.1,0-0.2c0-0.1,0-0.1,0-0.2c0-0.1,0-0.1,0.1-0.2c0-0.1,0-0.1,0.1-0.2c0-0.1,0-0.1,0.1-0.2c0-0.1,0-0.1,0.1-0.2
			c0-0.1,0-0.1,0.1-0.2c0-0.1,0-0.1,0.1-0.2c0-0.1,0.1-0.1,0.1-0.2c0-0.1,0.1-0.1,0.1-0.2c0-0.1,0.1-0.1,0.1-0.2
			c0-0.1,0.1-0.1,0.1-0.2c0-0.1,0.1-0.1,0.1-0.2c0,0,0.1-0.1,0.1-0.1c0-0.1,0.1-0.1,0.1-0.2c0,0,0.1-0.1,0.1-0.1
			c0,0,0.1-0.1,0.1-0.1c0.4-0.4,0.7-0.9,1-1.3l0,0c0.1-0.1,0.1-0.2,0.2-0.3c0,0,0.1-0.1,0.1-0.1c0,0,0,0,0-0.1c0,0,0.1-0.1,0.1-0.1
			c0-0.1,0.1-0.2,0.1-0.3c0-0.1,0-0.1,0.1-0.2c0-0.1,0.1-0.2,0.1-0.3c0,0,0-0.1,0.1-0.1c0-0.1,0.1-0.2,0.1-0.3c0,0,0-0.1,0-0.1
			c0-0.1,0.1-0.3,0.1-0.4c0,0,0-0.1,0-0.1c0-0.1,0-0.2,0.1-0.3c0,0,0-0.1,0-0.2c0-0.1,0-0.2,0-0.3c0-0.1,0-0.1,0-0.2
			c0-0.1,0-0.2,0-0.3c0,0,0-0.1,0-0.1c0-0.1,0-0.2,0-0.4c0,0,0,0,0-0.1c0-0.1,0-0.3-0.1-0.4c0,0,0-0.1,0-0.1c0-0.1,0-0.2-0.1-0.3
			c0-0.1,0-0.1,0-0.2c0-0.1-0.1-0.2-0.1-0.3c0-0.1,0-0.1-0.1-0.2c0-0.1-0.1-0.2-0.1-0.3c0,0,0-0.1-0.1-0.1c-0.1-0.1-0.1-0.3-0.2-0.4
			c-2.4-0.5-4.7-1-7-1.7c-0.5-0.1-1.1-0.3-1.6-0.4c0,0,0,0-0.1,0c-0.4-0.1-0.8-0.2-1.2-0.4c-1.9-0.5-3.4-0.9-4.7-1.2
			c-0.2,0.1-0.5,0.4-0.8,0.9c-0.5,0.9-1,1.8-1.5,2.7c-1.3,2.5-2.4,5.2-2.8,8.1C149.7,62.8,149.8,62.3,150.3,62.4"/>
		<path id="Fill-72" class="st7" d="M179.6,125.3c0.3-0.4,0.7-0.7,1.1-1c1.8-1.1,1.2-1.1,2.9-2.3c0.5-0.4,0.9-0.8,0.6-1.4
			c-0.1-0.3-0.4-0.3-0.7-0.3c-0.2,0.1-0.4,0.1-0.5,0.2l0,0l0,0c-0.1,0-0.2,0.1-0.3,0.1c-0.1,0-0.2,0.1-0.2,0.1
			c-0.1,0-0.2,0.1-0.3,0.1c-0.1,0-0.2,0.1-0.2,0.1c-0.1,0-0.2,0.1-0.3,0.1c-0.1,0-0.2,0.1-0.2,0.1c-0.1,0-0.2,0.1-0.2,0.1
			c-0.1,0-0.1,0.1-0.2,0.1c-0.1,0-0.2,0.1-0.2,0.1c-0.1,0-0.1,0.1-0.2,0.1c-0.1,0-0.2,0.1-0.2,0.1c-0.1,0-0.1,0.1-0.2,0.1
			c-0.1,0-0.2,0.1-0.2,0.1c-0.1,0-0.1,0.1-0.2,0.1c-0.1,0.1-0.2,0.1-0.3,0.2l-0.2,0.1c-0.1,0.1-0.2,0.1-0.4,0.2
			c-0.1,0-0.1,0.1-0.2,0.1c-0.1,0-0.1,0.1-0.2,0.1c-0.1,0-0.1,0.1-0.2,0.1c-0.1,0-0.1,0.1-0.2,0.1c-0.1,0-0.2,0.1-0.2,0.1
			c-0.1,0-0.1,0.1-0.2,0.1c-0.1,0-0.2,0.1-0.3,0.1c-0.1,0-0.1,0.1-0.2,0.1c-0.1,0-0.2,0.1-0.3,0.1c-0.1,0-0.1,0.1-0.2,0.1
			c-0.1,0.1-0.2,0.1-0.3,0.2c-0.1,0-0.1,0.1-0.2,0.1c-0.2,0.1-0.3,0.2-0.5,0.2c-3,1.3-6.4,5.1-9.5,6.4c0,0,0,0-0.1,0
			c-0.8,0.3-4.5,1.4-4.5,1.4l-0.2,0.7l-0.2,0.7l7.5-1.8C172.9,130.8,176.9,128.7,179.6,125.3"/>
		<path id="Fill-74" class="st16" d="M178.8,95c3.1-1.7,6-3.8,9.6-4.1c0.3,0,0.6-0.5,0.5-1c0-0.2-0.1-0.5-0.3-0.7
			c0-0.1-0.1-0.2-0.2-0.3c-0.1-0.2-0.3-0.5-0.5-0.8c-0.1-0.2-0.2-0.3-0.3-0.5c-1.3-2.3-3.4-6.2-4.7-9c-0.1-0.3-0.3-0.6-0.4-0.9
			c-0.3-0.9-0.6-1.6-0.6-2c-0.9-0.2-1.8-0.4-2.6-0.7c-1.8-0.7-2.6-1.9-2.3-3.8c0.1-1,0-1.8-0.1-2.8c-0.1-1.3-1-2-2-2.5
			c-1-0.5-2.9-0.4-3.7,0.4c-0.8,0.9-1.2,1.8-0.6,3c0,0.1,0.1,0.2,0.1,0.3c0,0,0,0.1,0,0.1c0,0.1,0,0.1,0.1,0.2c0,0,0,0.1,0,0.1
			c0,0.1,0,0.1,0.1,0.2c0,0,0,0.1,0,0.1c0,0.1,0,0.1,0,0.2c0,0,0,0.1,0,0.1c0,0.1,0,0.1,0,0.2c0,0,0,0.1,0,0.1c0,0.1,0,0.2,0,0.2
			c0,0,0,0,0,0c0,0.1,0,0.2,0,0.3c0,0,0,0.1,0,0.1c0,0.1,0,0.1,0,0.2c0,0,0,0.1,0,0.1c0,0.1,0,0.1,0,0.2c0,0,0,0.1,0,0.1l0,0.2
			c0,0,0,0.1,0,0.1c0,0.1,0,0.1,0,0.2c0,0.1,0,0.2,0,0.2c0,0,0,0.1,0,0.1c0,0.1,0,0.2,0,0.3l0,0.1c0,0.1,0,0.1,0,0.2
			c0,0.3,0,0.7,0,1c0,0,0,0,0,0c0,0.1,0,0.1,0,0.2c0,0,0,0,0,0c0,0.1,0,0.1,0,0.2l0,0c0,0.1,0,0.1,0,0.2c0,0,0,0,0,0
			c0,0.1,0,0.1,0.1,0.2c0,0,0,0,0,0c0,0.1,0.1,0.1,0.1,0.2c0,0,0,0,0,0c0,0.1,0.1,0.1,0.1,0.2c0,0,0,0,0,0c0,0.1,0.1,0.1,0.1,0.2
			c0,0,0,0,0,0c0,0.1,0.1,0.1,0.1,0.2c-0.1,2.5,0.3,5-1,7.4c0.5,2.1,0.7,4.3,0.7,6.5c0,1.7-0.1,3.4-0.3,4.8
			c-0.1,1.4-0.3,2.6-0.4,3.3c-0.1,0.6-0.1,0.9-0.1,0.9c0,0,0,0,0,0C174,98.1,175.9,96.7,178.8,95"/>
		<path id="Fill-76" class="st17" d="M153.9,46.7c1.8-3.3,2.8-6,4.8-8.9c2.3-3.4,5.3-5.2,9.2-4.9c3.1,0.2,0.8,1.6,0.8,6.1
			c0,3.2-0.5,6.3-1.9,9.2c-0.6,1.2-1.6,2-2.8,1.9c-0.1,0-0.3,0-0.4,0c-1.1,0-2.5,0.1-5.1-0.9c-1.1-0.4-2.5-1.3-4.4-1.9
			C153.9,47.2,153.8,46.9,153.9,46.7 M153.2,47.7L153.2,47.7c0,0,0.1,0,0.4,0.2c0.1,0.1,0.3,0.2,0.4,0.3c2.2,1.4,8.1,5.1,6.5,4.7
			c0.5,0.2,1.1,0.3,1.6,0.4c2.3,0.6,4.6,1.2,7,1.7c3.9,0.8,7.9,1.4,12.2,1.5c0.8-0.1,2.1-0.2,3.4-0.3c0.6-0.1,1-0.1,1.2-0.2
			c0.2-0.1,0.3-0.2,0.4-0.3c0-0.1,0.1-0.1,0.1-0.2c0.1-0.3,0.1-0.6,0.1-1.2c0-1.1,0.1-2.2,0.1-3.3c0-1.1,0-2.2-0.2-3.3
			c-0.9-7.1-4.1-12.4-10.8-14.8c-0.2-0.1-0.3-0.2-0.5-0.4c-0.2-0.2-0.3-0.4-0.4-0.5c-0.4-0.9-1-1.4-1.7-1.6c-0.5-0.1-1.1,0-1.6,0.3
			c-0.2,0.1-0.3,0.2-0.5,0.4c-0.3,0.3-0.9,0.6-1.3,0.7c-0.4,0.1-0.9,0.1-1.4,0.2c-1.4,0.1-2.7,0.2-4,0.5c-2.3,0.6-4.2,1.9-5.6,3.7
			c-0.3,0.3-0.6,0.7-0.9,1.1c-0.5,0.8-1,1.6-1.5,2.4c-0.6,1.1-1.2,2.3-1.8,3.4c-0.6,1.2-1.1,2.3-1.7,3.5c-0.3,0.7-0.6,0.8-1.4,0.6
			c-0.2,0-0.3-0.1-0.5-0.1c0.3,0.1,0.4,0.1,0.4,0.1S152.4,47.3,153.2,47.7"/>
		<path id="Fill-78" d="M143,45.2c-0.4,0-0.8,0-1.2-0.1c-0.4,0-0.8,0-1.2,0C141.4,45.2,142.2,45.2,143,45.2"/>
		<path id="Fill-80" d="M137.6,45.7c-0.1,0-0.1,0-0.2,0c0,0,0,0-0.1,0c0,0,0,0-0.1,0c0.1,0,0.3-0.1,0.4-0.1
			C137.7,45.7,137.7,45.7,137.6,45.7"/>
		<path id="Fill-82" d="M135.2,47.2c-0.1,0.2-0.3,0.3-0.4,0.5c0,0,0,0,0,0.1c0,0,0,0,0,0.1c0.3-0.4,0.6-0.8,0.9-1.1
			C135.4,46.9,135.3,47,135.2,47.2"/>
		<path id="Fill-84" class="st18" d="M154.1,47.3c1.9,0.7,3.3,1.5,4.4,1.9c2.5,0.9,4,0.9,5.1,0.9c0.1,0,0.3,0,0.4,0
			c1.2,0.1,2.3-0.7,2.8-1.9c1.3-2.9,1.9-6,1.9-9.2c0-4.5,2.2-5.9-0.8-6.1c-3.9-0.2-6.9,1.5-9.2,4.9c-2,2.9-2.9,5.6-4.8,8.9
			C153.8,46.9,153.9,47.2,154.1,47.3"/>
		<path id="Fill-86" class="st16" d="M156.4,113.8C156.4,113.7,156.4,113.7,156.4,113.8C156.4,113.7,156.4,113.7,156.4,113.8
			l-1.2,1.1L154,116l-15.5,15.5l-27.5,5.8c0,0-4.1-1.1-5.6-0.9c-5.1,0.8-6.5,2.3-10.1,1.1c-1.9-0.6-1.7,3,0.7,3.7
			c0,0,3.2,1.2,2.6,2.5c-2.1,4.5-7.2,5.6-9.6,5.9c-0.7,0.1-1.2,0.1-1.2,0.1s0.1,0.7,1.1,1.7c0.3,0.3,0.7,0.6,1.1,0.9
			c0.3,0.2,0.7,0.5,1.2,0.8c0.2,0.1,0.3,0.2,0.5,0.3c0.3,0.2,0.7,0.4,1.1,0.5c0.2,0.1,0.4,0.2,0.6,0.3c1.5,0.6,3.5,1.3,5.9,1.9
			c1,0.2,2.3,0,3.7-0.5c0.5-0.2,0.9-0.4,1.4-0.6c1.2-0.5,2.3-1.2,3.5-1.9c3.6-2.3,6.7-4.9,6.7-4.9l29.4-1.3l5.7-4.9l11.5-9.9
			l0.1-0.1c0,0,0.1-0.1,0.1-0.1c0,0,0-0.1,0-0.2c0-0.1,0-0.1,0-0.2C160.5,129.6,155.2,119.3,156.4,113.8"/>
		<path id="Fill-88" class="st19" d="M111.8,113.6c0.8,0.4,1.3,1.2,1.9,1.9c0.1,0.1,0.1,0.1,0.2,0.1c1.1,0.4,1.9,0.1,2.7-0.7
			c2.3-2.3,2.6-2.3,4.4,0.3c0.1,0.1,0.1,0.2,0.2,0.3c0.7,0.8,1.5,1.2,2.5,0.9c1-0.3,1.4-1.4,1.6-2.1c0.8-3.6,3.6-20.9,3.6-20.9
			l-7.4-1.6l-7.4-1.6c0,0-3.1,18.2-3.6,20.4C110.3,112,110.6,113,111.8,113.6"/>
		<path id="Fill-90" class="st20" d="M88.9,85l-6.7-1.4c-0.1,0-0.1,0-0.2,0c-0.1,0-0.2,0.1-0.3,0.2c0,0-0.1,0.1-0.1,0.2l-0.2,1
			l-11.3,53.4c0,0.1,0,0.2,0,0.3c0,0.1,0,0.3,0.1,0.4c0,0,0,0.1,0,0.1c0.1,0.1,0.1,0.2,0.2,0.3c0,0,0,0,0,0l6.8,7.8l0.1,0.2l0-0.1
			l12.1-61.6C89.5,85.4,89.2,85.1,88.9,85"/>
		<path id="Fill-92" class="st18" d="M134.7,47.9c0.9-1,4.4-2.8,18.3,2.9c0.1,0,0.5,0.2,0.7,0.3c0.2,0.1,0.5,0.2,0.8,0.2
			c1.3,0.3,2.8,0.7,4.7,1.2c0.4,0.1,0.9,0.2,1.2,0.4c0,0,0,0,0.1,0c1.6,0.4-4.4-3.4-6.5-4.7c-0.1-0.1-0.3-0.2-0.4-0.3
			c-0.2-0.1-0.4-0.2-0.4-0.2l0,0c-0.8-0.4-1.7-0.7-1.7-0.7s-0.1-0.1-0.4-0.1c-1.1-0.4-4.4-1.3-7.9-1.6c0,0,0,0,0,0c0,0-0.1,0-0.1,0
			c-0.8-0.1-1.6-0.1-2.4,0c0,0,0,0,0,0c0,0,0,0,0,0h0c-0.1,0-0.3,0-0.4,0c-0.1,0-0.3,0-0.4,0c-0.2,0-0.3,0-0.5,0.1
			c-0.2,0-0.5,0.1-0.7,0.1c0,0-0.1,0-0.1,0c0,0-0.1,0-0.1,0c-0.1,0-0.1,0-0.2,0.1c-0.1,0-0.1,0-0.2,0.1c0,0,0,0,0,0
			c-0.1,0-0.3,0.1-0.4,0.1h0c-0.2,0.1-0.3,0.1-0.5,0.2c-0.2,0.1-0.3,0.1-0.5,0.2c-0.3,0.1-0.6,0.3-0.8,0.5c-0.3,0.3-0.6,0.6-0.9,1.1
			C134.7,47.8,134.7,47.8,134.7,47.9C134.7,47.9,134.7,47.9,134.7,47.9c-0.1,0-0.1,0.1-0.2,0.2c0,0.1-0.1,0.1-0.1,0.2c0,0,0,0,0-0.1
			c0,0,0,0,0-0.1C134.6,48.1,134.7,48,134.7,47.9"/>
		<g id="Group-96" transform="translate(0.000000, 0.761000)">
			<g id="Clip-95">
			</g>
			<defs>
				<filter id="Adobe_OpacityMaskFilter_1_" filterUnits="userSpaceOnUse" x="0" y="0.2" width="315.8" height="278.8">
					<feColorMatrix  type="matrix" values="1 0 0 0 0  0 1 0 0 0  0 0 1 0 0  0 0 0 1 0"/>
				</filter>
			</defs>
			<mask maskUnits="userSpaceOnUse" x="0" y="0.2" width="315.8" height="278.8" id="mask-4_1_">
				<g class="st21">
					<polygon id="path-3_1_" class="st1" points="0,0.2 315.8,0.2 315.8,279 0,279 					"/>
				</g>
			</mask>
			<path id="Fill-94" class="st22" d="M253,153.4c-4.7,0-9.3,0.5-13.7,1.5c2.9-10.5,4.5-21.5,4.5-32.8
				c0-67.3-54.6-121.8-121.8-121.8C54.6,0.2,0,54.8,0,122.1c0,67.3,54.6,121.8,121.8,121.8c1.8,0,3.6,0,5.4-0.1
				c2.8-9.3,5.6-18.6,8.3-28c1.4-4.7,2.7-9.3,4.1-14c1.3-4.7,2.7-9.4,4-14c0,0-0.1,0-0.1,0l0,0c-0.7,0-1.3-0.4-1.7-0.8
				c-0.4-0.5-0.7-1.1-0.7-1.7c0-0.4,0.1-0.9,0.3-1.3c0.2-0.4,0.4-0.8,0.6-1.2c0.2-0.4,0.4-0.8,0.6-1.2c0.7-1.6,1.2-3.3,1.6-5
				c0.4-1.7,0.8-3.4,1.3-5.1c0.3-1.1,0.7-2.2,1.1-3.3c0.2-0.5,0.5-1.2,0.8-2.1c0.1-0.3,0.3-0.6,0.4-0.9c0.2-0.5,0.5-1.1,0.8-1.8
				c2.2-5,5.7-12.8,8.6-19.9c0.4-0.9,0.7-1.7,1.1-2.6c0.2-0.4,0.3-0.8,0.5-1.3c1-2.5,1.9-4.8,2.6-6.7l0.2-0.7l0.2-0.7
				c0-0.1,0-0.1,0-0.2c0-0.1,0-0.2-0.1-0.3c0-0.1,0-0.2-0.1-0.3c0,0.1,0,0.1,0,0.2c0,0.1-0.1,0.1-0.1,0.1l-0.1,0.1l-11.5,9.9
				l-1.3,7.6l-1.3,7.6c-0.1,0.4-0.2,0.8-0.4,1.1c-0.3,0.5-0.8,0.9-1.3,1.1c-0.4,0.2-0.7,0.2-1.2,0.3c-0.2,0-0.4,0-0.6,0l-35.7-6.5
				c-1.1,0.7-2.3,1.4-3.5,1.9c-0.5,0.2-1,0.4-1.4,0.6c-1.4,0.5-2.7,0.7-3.7,0.5c-2.5-0.6-4.4-1.3-5.9-1.9c-0.2-0.1-0.4-0.2-0.6-0.3
				c-0.4-0.2-0.8-0.4-1.1-0.5c-0.2-0.1-0.3-0.2-0.5-0.3c-0.5-0.3-0.9-0.5-1.2-0.8c-0.5-0.3-0.8-0.6-1.1-0.9c-1-1-1.1-1.7-1.1-1.7
				s0.5,0,1.2-0.1l-11.4-2.1c-0.1,0-0.1,0-0.2-0.1c0,0-0.1,0-0.1-0.1l0,0.1l-0.1-0.2c0,0,0,0,0,0c0,0,0,0,0,0l-6.7-7.7c0,0,0,0,0,0
				c-0.1-0.1-0.1-0.2-0.2-0.3c0,0,0-0.1,0-0.1c0-0.1-0.1-0.3-0.1-0.4c0,0,0,0,0,0c0-0.1,0-0.2,0-0.3l11.3-53.2c0,0,0-0.1,0-0.1
				c0,0,0-0.1,0-0.1l0.2-1c0-0.1,0-0.1,0.1-0.2c0.1-0.1,0.2-0.2,0.3-0.2c0.1,0,0.1,0,0.2,0l6.7,1.4l25.2,5.3l7.4,1.6l7.4,1.6l27,5.7
				c0.5,0.1,0.8,0.6,0.8,1.1l-2.7,15.8l1.2-1.2l1.2-1.2c0,0,0,0,0,0c0,0,0,0,0,0c0.7-1,1.4-1.9,2.1-2.8c0.7-0.9,1.5-1.8,2.3-2.6
				c0.4-0.5,0.9-0.9,1.3-1.4c3.1-3.1,6.1-5.5,7.8-7c0.7-0.6,1.1-1,1.3-1.3c0,0,0-0.4,0.1-0.9c0.1-0.7,0.3-1.9,0.4-3.3
				c0.1-1.4,0.3-3.1,0.3-4.8c0-2.2-0.2-4.4-0.7-6.5v0c0,0.4-0.1,0.7-0.2,1.1c-0.1,0.3-0.3,0.6-0.6,0.9c-1.6,1.7-4.8,4.1-9.1,4.6
				c-1.4,0.2-3,0.1-4.7-0.3c-2.2-0.5-4.7-1.6-7.4-3.5c-0.8-0.7-1.4-1.5-1.7-2.4c-0.2-0.6-0.4-1.3-0.5-1.9c-0.1-0.7-0.1-1.3-0.1-2
				c0-3,1-5.7,1-5.8c0.3-1.3,0.5-2,0.5-2.5c0-0.2,0-0.3-0.1-0.4c-0.2-0.5-0.9-0.7-2.4-1.3c0,0-0.1,0-0.1-0.1
				c-0.1-0.1-0.2-0.2-0.4-0.5c1-1.5,2-3,2.9-4.5c0.3-0.5,0.7-1,1-1.5c0.4-2.9,1.5-5.5,2.8-8.1h0c-7.6-2.1-10.3-1.8-12.8-1.8
				c-0.2,0-0.4,0-0.6,0c-0.6,0-1.3-0.1-2-0.2c-0.5-0.1-1.1-0.4-1.5-0.9c-0.2-0.2-0.3-0.4-0.4-0.6c-0.3-0.5-0.4-1-0.5-1.6
				c0-0.3,0-0.6,0-0.8c0-0.3,0.1-0.5,0.2-0.8c0,0,0,0,0,0.1c0,0,0,0,0,0.1c0,0,0,0,0,0c0,0,0-0.1,0.1-0.2c0-0.1,0.1-0.2,0.1-0.2
				c0,0,0,0,0,0c0,0,0,0,0,0c0,0,0,0,0-0.1c0,0,0,0,0-0.1c0.1-0.2,0.2-0.4,0.4-0.5c0.1-0.2,0.3-0.3,0.4-0.4c0.2-0.2,0.5-0.4,0.8-0.5
				c0.1-0.1,0.3-0.1,0.5-0.2c0.2-0.1,0.3-0.1,0.5-0.2h0c0,0,0,0,0.1,0s0,0,0.1,0c0.1,0,0.1,0,0.2,0c0,0,0.1,0,0.1,0c0,0,0,0,0,0
				c0.1,0,0.1,0,0.2-0.1c0.1,0,0.1,0,0.2-0.1c0,0,0.1,0,0.1,0c0,0,0.1,0,0.1,0c0.2-0.1,0.5-0.1,0.7-0.1c0.2,0,0.3,0,0.5-0.1
				c0.1,0,0.3,0,0.4,0c0.1,0,0.3,0,0.4,0h0c0,0,0,0,0,0c0,0,0,0,0,0c0.4,0,0.8,0,1.2,0c0.4,0,0.8,0,1.2,0.1c0,0,0.1,0,0.1,0
				c0,0,0,0,0,0c3.4,0.3,6.8,1.2,7.9,1.6c0.2,0,0.3,0.1,0.5,0.1c0.7,0.2,1,0,1.4-0.6c0.6-1.2,1.1-2.3,1.7-3.5
				c0.6-1.2,1.1-2.3,1.8-3.4c0.5-0.9,1-1.7,1.5-2.4c0.3-0.4,0.6-0.7,0.9-1.1c1.5-1.7,3.3-3.1,5.6-3.7c1.3-0.3,2.7-0.4,4-0.5
				c0.5,0,0.9-0.1,1.4-0.2c0.4-0.1,1-0.4,1.3-0.7c0.2-0.2,0.3-0.3,0.5-0.4c0.5-0.3,1.1-0.4,1.6-0.3c0.7,0.2,1.3,0.7,1.7,1.6
				c0.1,0.2,0.2,0.4,0.4,0.5c0.2,0.2,0.3,0.3,0.5,0.4c6.6,2.5,9.9,7.7,10.8,14.8c0.1,1.1,0.2,2.2,0.2,3.3c0,1.1-0.1,2.2-0.1,3.3
				c0,0.5,0,0.9-0.1,1.2c0,0.1,0,0.1-0.1,0.2c-0.1,0.2-0.2,0.3-0.4,0.3c0,0.4,0.1,0.8,0.1,1.1c0,0.4,0.1,0.7,0.1,1.1
				c0,0.8,0,1.5-0.1,2.3c0,0.6-0.1,1.3-0.2,1.9c-0.2,1.2-0.5,2.5-0.9,3.6c-0.2,0.6-0.4,1.2-0.7,1.8c-0.2,0.6-0.4,1.1-0.5,1.6
				c-0.1,0.4-0.1,0.8,0,1.3c0,0.2,0.1,0.3,0.1,0.5c0.1,0.4,0.3,0.7,0.5,0.9c0.1,0.1,0.1,0.1,0.2,0.2c0.3,0.2,0.7,0.2,1.1,0.2
				c0.4,0,1-0.3,1.2,0.3c0.1,0.2,0.1,0.3,0.1,0.5c0.1,0.5-0.1,1-0.6,1.3c-0.7,0.5-1.5,0.9-2.3,1.1c-0.2,0-0.3,0.1-0.5,0.1
				c-0.5,0-0.9,0-1.4,0c0,0.5,0.2,1.2,0.6,2c0.1,0.3,0.2,0.6,0.4,0.9c1.2,2.9,3.4,6.8,4.6,9c0.1,0.2,0.2,0.4,0.3,0.5
				c0.2,0.3,0.3,0.6,0.5,0.8c0.1,0.1,0.1,0.2,0.2,0.3c0.2,0.2,0.3,0.5,0.3,0.7c0.5,0.2,0.9,0.5,1.4,0.8c0.1,0.1,0.3,0.2,0.4,0.3
				c0.5,0.4,1,1,1.4,1.8c1.1,2.2,2.2,4.4,3.2,6.6c1,2.2,1.8,4.5,2.6,6.8c0.6,2.2,1.1,4.3,1.5,6.5c0.1,0.7,0.3,1.5,0.4,2.2
				c1,5.8,1.4,11.7,1.5,17.6c0,0.7,0,1.5,0,2.2c0,0.7,0,1.5,0,2.2c0,1.5,0,3,0,4.4c0,0.2,0,0.4,0,0.6c0,0.6,0,1.3,0.1,2
				c0,0.5,0.1,1,0.1,1.5c0,0.3,0,0.5,0.1,0.8c0.3,4.1,1,9,1.4,12.2c0.1,0.6,0.1,1.1,0.2,1.6c0,0.3,0.1,0.6,0.1,0.8
				c0,0.3,0.1,0.6,0.1,0.7c0,0.1,0,0.1,0,0.1c-0.1,0-0.2-0.1-0.2-0.1c-0.2-0.1-0.3-0.1-0.5-0.2c-0.1,0-0.2-0.1-0.3-0.1l0.8,0.5
				c0,0,0.1,0.4,0.3,1c0.1,0.1,0.1,0.3,0.2,0.5c0.2,0.5,0.4,1,0.6,1.5c0.1,0.1,0.2,0.2,0.3,0.3c0.1,0.1,0.2,0.2,0.3,0.3
				c0.8,0.9,1.2,1.9,1.4,2.8c0,0.2,0,0.3,0.1,0.5c0,0.2,0,0.3,0,0.5c0,0.2,0,0.3,0,0.5c0,0.2,0,0.3,0,0.5c-0.3,2.1-1.4,4.2-1.4,6.4
				c0,0.3,0,0.6,0.1,0.9c0,0.2,0.1,0.3,0.1,0.5c0.2,0.8,0.6,1.5,1.3,2.3c0.4,0.5,0.6,0.9,0.6,1.3c0,0.6-0.3,1.2-0.5,1.8
				c-0.1,0.3-0.2,0.7-0.3,1c0,0.1,0,0.2,0,0.4c0,0.3,0.1,0.5,0.1,0.8c0.1,0.3,0.2,0.6,0.1,0.8c0,0.1,0,0.2,0,0.2
				c-0.1,0.3-0.3,0.6-0.8,0.8c-0.3,0-0.6-0.1-0.9-0.1c-0.3,0-0.6-0.1-0.9-0.1c0.1,0.8,0.2,1.5,0.2,2.3c0.2,3.8-0.3,7.5-0.8,11.3
				c-0.2,1.5-0.4,3-0.6,4.5c-0.2,1.3-0.3,2.7-0.5,4c-0.3,2.7-0.6,5.4-0.8,8.1c-0.1,1.3-0.1,2.7-0.2,4.1c0,1.3,0.1,2.6,0.2,3.9
				c0.1,0.4,0.1,0.8,0.2,1.2c0.3,1.2,0.6,2.4,1.1,3.5c1.3,3.4,3.5,6.4,6.4,9.1c3.9,3.7,8,7.4,11.5,11.5c0.8,1,1.6,1.9,2.4,2.9
				c0,0.1,0.1,0.1,0.2,0.2c0.1,0.1,0.1,0.2,0.2,0.4c0.3,0.4,0.8,1.1,1.6,1.8c0.3,0.2,0.6,0.5,0.9,0.7c0.7,0.5,1.5,1.1,2.5,1.6
				c0.3,0.2,0.6,0.6,0.8,1c0.1,0.1,0.1,0.2,0.1,0.3c0.1,0.3,0.2,0.6,0.2,0.8c0,0.3,0,0.6,0.1,0.8c0,0.1,0,0.2,0.1,0.3
				c0.1,0.3,0.3,0.6,0.7,0.8c0.1,0,0.1,0.1,0.2,0.1c0.2,0.1,0.5,0.2,0.7,0.3c0.3,0.1,0.6,0.4,0.7,0.7c0,0.1,0.1,0.2,0,0.4
				c0,0.1,0,0.2-0.1,0.4c-0.1,0.2-0.1,0.4-0.1,0.7c0,0.6,0.2,1.3,0.4,1.9c0.1,0.2,0.1,0.4,0.1,0.6c0,0.1,0,0.2,0,0.3
				c0,0.5-0.2,0.9-0.7,1.4l2,8.2c6.1,2,12.7,3.1,19.5,3.1c34.7,0,62.8-28.1,62.8-62.8C315.8,181.5,287.6,153.4,253,153.4"/>
		</g>
		<path id="Fill-99" class="st13" d="M230.8,268.3c-0.8,0.3-1.9,0.8-3.1,1.4c-0.7,0.3-1.3,0.7-1.9,1c-1.6,0.9-3,1.6-3,1.6
			s-3,1.4-5.3,2.4c-0.2,0.1-0.4,0.2-0.6,0.3c-0.5,0.3-1,0.5-1.4,0.6c-0.4,0.2-0.7,0.5-0.9,0.8c-0.1,0.1-0.1,0.2-0.2,0.3
			c-0.2,0.5-0.1,1,0.4,1.3c2.1,1,0.4,1,1.8,2.5c0.2,0.1,0.4,0.1,0.7,0.1l0.1,0h0c1.1-0.5,2.9-1.6,3.9-2.1c0.5-0.2,0.9-0.3,1.3-0.3
			c0.1,0,0.2,0,0.3,0.1c0.3,0.1,0.5,0.3,0.6,0.7c0.1,0.1,0.1,0.2,0.1,0.3c0,0.1,0,0.2,0,0.3c0,0.1-0.1,0.2-0.2,0.3
			c-0.2,0.3-0.7,0.5-1.1,0.7c-0.3,0.2-0.8,0.4-1.3,0.7c-0.2,0.1-0.3,0.2-0.5,0.3c-0.7,0.4-1.3,0.8-1.5,1.4c0.1,0.1,0.3,0.6,1,0.9
			c0.7-0.4,1.5-0.7,2.3-1c0.4-0.1,0.8-0.3,1.3-0.4c0.4-0.1,0.8-0.2,1.2-0.3c0.5-0.1,0.9-0.1,1.2,0.1c0.1,0.1,0.1,0.1,0.2,0.2
			c0.1,0.1,0.1,0.2,0.1,0.4c0,0.2-0.1,0.5-0.2,0.7c-0.1,0.1-0.2,0.2-0.2,0.3c-0.4,0.6-1.1,1-1.8,1.4c-0.2,0.1-0.5,0.2-0.7,0.3
			c-0.2,0.1-0.4,0.2-0.6,0.3c-0.4,0.2-0.7,0.3-1,0.5c0.2,0.6,0.9,1,1.5,1.3c0.1,0,0.1,0.1,0.2,0.1c1-0.5,1.9-0.9,2.9-1.4
			c0.6-0.3,1.3-0.6,1.8-0.3c0.1,0,0.2,0.1,0.2,0.2c0.1,0.1,0.1,0.2,0.2,0.3c0.1,0.2,0.1,0.4,0.1,0.6c-0.1,0.4-0.4,0.8-0.8,1.1
			c-0.1,0.1-0.3,0.2-0.5,0.3c-0.3,0.1-0.5,0.3-0.7,0.4c-0.6,0.3-1.1,0.7-1.7,1.5c0.1,0.2,0.7,0.9,0.7,0.9c1-0.4,2.2-0.9,3.2-1.3
			c0.3-0.1,0.5-0.2,0.8-0.2c0.3,0,0.5,0,0.7,0.2c0.1,0.1,0.2,0.2,0.3,0.4c0.1,0.1,0.1,0.2,0.1,0.3c0,0.1,0,0.2,0,0.3
			c0,0.5-0.4,0.9-1,1.3c-0.6,0.3-1.4,0.8-2.1,1.1c-0.2,0.1-0.5,0.2-0.7,0.3c0.3,0.7,0.6,1.3,1.1,1.9c2.5,2.4,1.2,6.6,0.5,8.6
			c0.2,0,0.4,0,0.7,0.1c0.4,0.1,0.8,0.3,1.2,0.5c1.3,0.7,2.6,1.8,2.6,1.9c0,0,0,0-0.2-0.1c-0.4-0.2-0.8-0.4-1.2-0.6
			c-0.3-0.1-0.6-0.2-0.8-0.3c-1.5-0.4-2.8-0.5-2.8-0.5s-5.9-0.9-7.8-0.5c-1.2,0.3-3.2,1.7-3.3,3.9c0,1.1,0.2,2.2,0.5,3.3
			c0.2,0.8,0.6,1.6,1.2,2.2c0,0,0,0,0.1,0c0,0,0.1-0.1,0.2-0.1l7.6-0.6l7.6-0.6l5.1-5.7l5.1-5.7v0c0,0,0,0,0,0
			c-0.1-0.2-0.2-0.4-0.2-0.6c-0.3-1.2-1.4-2.3-1.9-3.1c-3.1-4.7-6.5-13.1-8.9-20.7l-2-8.2C231.2,268.4,231,268.3,230.8,268.3"/>
	</g>
</g>
</svg>
