<?xml version="1.0" encoding="UTF-8" standalone="no"?>
<svg
   xmlns:dc="http://purl.org/dc/elements/1.1/"
   xmlns:cc="http://creativecommons.org/ns#"
   xmlns:rdf="http://www.w3.org/1999/02/22-rdf-syntax-ns#"
   xmlns:svg="http://www.w3.org/2000/svg"
   xmlns="http://www.w3.org/2000/svg"
   xmlns:sodipodi="http://sodipodi.sourceforge.net/DTD/sodipodi-0.dtd"
   xmlns:inkscape="http://www.inkscape.org/namespaces/inkscape"
   width="754"
   height="576"
   version="1.1"
   id="svg21"
   sodipodi:docname="logo-entrega.svg"
   inkscape:version="0.92.4 (5da689c313, 2019-01-14)">
  <metadata
     id="metadata25">
    <rdf:RDF>
      <cc:Work
         rdf:about="">
        <dc:format>image/svg+xml</dc:format>
        <dc:type
           rdf:resource="http://purl.org/dc/dcmitype/StillImage" />
        <dc:title></dc:title>
      </cc:Work>
    </rdf:RDF>
  </metadata>
  <sodipodi:namedview
     pagecolor="#ffffff"
     bordercolor="#666666"
     borderopacity="1"
     objecttolerance="10"
     gridtolerance="10"
     guidetolerance="10"
     inkscape:pageopacity="0"
     inkscape:pageshadow="2"
     inkscape:window-width="2560"
     inkscape:window-height="1017"
     id="namedview23"
     showgrid="false"
     inkscape:zoom="0.85"
     inkscape:cx="240.23529"
     inkscape:cy="288"
     inkscape:window-x="-8"
     inkscape:window-y="-8"
     inkscape:window-maximized="1"
     inkscape:current-layer="layer3" />
  <defs
     id="defs17">
    <linearGradient
       id="gradTernium"
       x1="235.98768"
       y1="0"
       x2="895.00513"
       y2="0"
       gradientTransform="matrix(1.1441275,0,0,0.87402845,-270,0)"
       gradientUnits="userSpaceOnUse">
      <stop
         offset="0"
         style="stop-color:#FAD961"
         id="stop2" />
      <stop
         offset="4.194248e-02"
         style="stop-color:#FAD05B"
         id="stop4" />
      <stop
         offset="0.2339"
         style="stop-color:#F9AC45"
         id="stop6" />
      <stop
         offset="0.4271"
         style="stop-color:#F88F33"
         id="stop8" />
      <stop
         offset="0.6195"
         style="stop-color:#F77B26"
         id="stop10" />
      <stop
         offset="0.8108"
         style="stop-color:#F76F1F"
         id="stop12" />
      <stop
         offset="1"
         style="stop-color:#F76B1C"
         id="stop14" />
    </linearGradient>
    <mask
       maskUnits="userSpaceOnUse"
       x="0.9"
       y="0.7"
       width="60.1"
       height="60.1"
       id="mask-2_1_">
      <g
         class="st0"
         id="g4693"
         style="filter:url(#Adobe_OpacityMaskFilter)">
        <polygon
           id="path-1_1_"
           class="st1"
           points="0.9,60.8 0.9,0.7 61,0.7 61,60.8 "
           style="fill:#ffffff" />
      </g>
    </mask>
    <filter
       id="Adobe_OpacityMaskFilter"
       filterUnits="userSpaceOnUse"
       x="0.89999998"
       y="0.69999999"
       width="60.099998"
       height="60.099998">
      <feColorMatrix
         type="matrix"
         values="1 0 0 0 0  0 1 0 0 0  0 0 1 0 0  0 0 0 1 0"
         id="feColorMatrix4687" />
    </filter>
    <mask
       maskUnits="userSpaceOnUse"
       x="0"
       y="0.2"
       width="315.8"
       height="278.8"
       id="mask-4_1_">
      <g
         class="st21"
         id="g4748"
         style="filter:url(#Adobe_OpacityMaskFilter_1_)">
        <polygon
           id="path-3_1_"
           class="st1"
           points="0,279 0,0.2 315.8,0.2 315.8,279 "
           style="fill:#ffffff" />
      </g>
    </mask>
    <filter
       id="Adobe_OpacityMaskFilter_1_"
       filterUnits="userSpaceOnUse"
       x="0"
       y="0.2"
       width="315.79999"
       height="278.79999">
      <feColorMatrix
         type="matrix"
         values="1 0 0 0 0  0 1 0 0 0  0 0 1 0 0  0 0 0 1 0"
         id="feColorMatrix4742" />
    </filter>
    <filter
       id="filter4784"
       filterUnits="userSpaceOnUse"
       x="0.89999998"
       y="0.69999999"
       width="60.099998"
       height="60.099998">
      <feColorMatrix
         type="matrix"
         values="1 0 0 0 0  0 1 0 0 0  0 0 1 0 0  0 0 0 1 0"
         id="feColorMatrix4782" />
    </filter>
    <filter
       id="filter4841"
       filterUnits="userSpaceOnUse"
       x="0"
       y="0.2"
       width="315.79999"
       height="278.79999">
      <feColorMatrix
         type="matrix"
         values="1 0 0 0 0  0 1 0 0 0  0 0 1 0 0  0 0 0 1 0"
         id="feColorMatrix4839" />
    </filter>
  </defs>
  <path
     d="M 273,0 0,255 85,576 H 754 V 0 Z"
     id="path19"
     inkscape:connector-curvature="0"
     style="fill:url(#gradTernium)" />
  <text
     xml:space="preserve"
     style="font-style:normal;font-weight:normal;font-size:24px;line-height:1.25;font-family:sans-serif;letter-spacing:0px;word-spacing:0px;fill:#767676;fill-opacity:1;stroke:none"
     x="-184.11765"
     y="459.52942"
     id="text3736"><tspan
       sodipodi:role="line"
       id="tspan3734"
       x="-184.11765"
       y="480.76379" /></text>
  <text
     xml:space="preserve"
     style="font-style:normal;font-weight:normal;font-size:40px;line-height:1.25;font-family:sans-serif;letter-spacing:0px;word-spacing:0px;fill:#000000;fill-opacity:1;stroke:none"
     x="-172.35294"
     y="450.11765"
     id="text4545"><tspan
       sodipodi:role="line"
       id="tspan4543"
       x="-172.35294"
       y="485.50827" /></text>
  <flowRoot
     xml:space="preserve"
     id="flowRoot4563"
     style="font-style:normal;font-weight:normal;font-size:40px;line-height:1.25;font-family:sans-serif;letter-spacing:0px;word-spacing:0px;fill:#000000;fill-opacity:1;stroke:none"
     transform="translate(-270)"><flowRegion
       id="flowRegion4565"><rect
         id="rect4567"
         width="215.29411"
         height="102.35294"
         x="18.82353"
         y="418.35294" /></flowRegion><flowPara
       id="flowPara4569"></flowPara></flowRoot>  <flowRoot
     xml:space="preserve"
     id="flowRoot4581"
     style="font-style:normal;font-weight:normal;font-size:40px;line-height:1.25;font-family:sans-serif;letter-spacing:0px;word-spacing:0px;fill:#000000;fill-opacity:1;stroke:none"
     transform="translate(-270)"><flowRegion
       id="flowRegion4583"><rect
         id="rect4585"
         width="178.82353"
         height="100"
         x="4.7058825"
         y="419.52942" /></flowRegion><flowPara
       id="flowPara4587"></flowPara></flowRoot>  <g
     inkscape:groupmode="layer"
     id="layer3"
     inkscape:label="imagem"
     transform="translate(-270)">
    <g
       id="Administrador"
       transform="matrix(1.5578402,0,0,1.289717,447.26471,109.31665)"
       style="stroke-width:0.70549077">
      <g
         id="Group-101"
         transform="translate(0,-1)"
         style="stroke-width:0.70549077">
        <g
           id="Group-3"
           transform="translate(268,72.761)"
           style="stroke-width:0.70549077">
          <g
             id="Clip-2"
             style="stroke-width:0.70549077" />
          <defs
             id="defs4690">
            <filter
               id="filter4950"
               filterUnits="userSpaceOnUse"
               x="0.89999998"
               y="0.69999999"
               width="60.099998"
               height="60.099998">
              <feColorMatrix
                 type="matrix"
                 values="1 0 0 0 0  0 1 0 0 0  0 0 1 0 0  0 0 0 1 0"
                 id="feColorMatrix4948" />
            </filter>
          </defs>
          <mask
             maskUnits="userSpaceOnUse"
             x="0.9"
             y="0.7"
             width="60.1"
             height="60.1"
             id="mask4791">
            <g
               class="st0"
               id="g4789"
               style="filter:url(#Adobe_OpacityMaskFilter)">
              <polygon
                 id="polygon4787"
                 class="st1"
                 points="61,0.7 61,60.8 0.9,60.8 0.9,0.7 "
                 style="fill:#ffffff" />
            </g>
          </mask>
          <path
             id="Fill-1"
             class="st2"
             d="m 30.9,0.7 c -16.6,0 -30,13.4 -30,30 0,16.6 13.5,30.1 30.1,30.1 16.5,0 30,-13.5 30,-30.1 0,-16.6 -13.5,-30 -30.1,-30"
             mask="url(#mask-2_1_)"
             inkscape:connector-curvature="0"
             style="fill:#ff9300;stroke-width:0.70549077" />
        </g>
        <path
           id="Fill-4"
           class="st3"
           d="m 183,120.5 c 0.2,-0.1 0.4,-0.1 0.5,-0.2 -0.1,0.1 -0.3,0.2 -0.5,0.2"
           inkscape:connector-curvature="0"
           style="fill:#dfdfe2;stroke-width:0.70549077" />
        <path
           id="Fill-6"
           class="st3"
           d="m 167.4,62.9 c 0,-0.1 0.1,-0.1 0.1,-0.2 0.1,-0.2 0.3,-0.3 0.4,-0.5 0.2,-0.3 0.4,-0.5 0.5,-0.8 -0.3,0.5 -0.6,0.9 -1,1.3 0.1,0.1 0.1,0.2 0,0.2"
           inkscape:connector-curvature="0"
           style="fill:#dfdfe2;stroke-width:0.70549077" />
        <path
           id="Fill-8"
           class="st4"
           d="m 156.7,239.6 c 6.7,-2 13.1,-4.5 19.3,-7.6 -2.3,-4.3 -4.6,-8.6 -6.5,-13.1 -3.2,7.6 -7.6,14.4 -12.8,20.7"
           inkscape:connector-curvature="0"
           style="fill:#ff9200;stroke-width:0.70549077" />
        <path
           id="Fill-10"
           class="st3"
           d="m 182.9,120.6 c -0.1,0 -0.2,0.1 -0.2,0.1 0.1,-0.1 0.2,-0.1 0.2,-0.1 0.1,-0.1 0,0 0,0"
           inkscape:connector-curvature="0"
           style="fill:#dfdfe2;stroke-width:0.70549077" />
        <path
           id="Fill-12"
           class="st5"
           d="m 203.7,186.9 c 0.3,0 0.6,0.1 0.9,0.1 0.3,0 0.6,0.1 0.9,0.1 0.5,-0.2 0.7,-0.5 0.8,-0.8 0,-0.1 0,-0.2 0,-0.2 0,-0.3 0,-0.5 -0.1,-0.8 -0.1,-0.3 -0.1,-0.6 -0.1,-0.8 0,-0.1 0,-0.2 0,-0.4 0,-0.4 0.1,-0.7 0.3,-1 0.2,-0.6 0.6,-1.2 0.5,-1.8 0,-0.4 -0.2,-0.8 -0.6,-1.3 -0.7,-0.8 -1.1,-1.6 -1.3,-2.3 0,-0.2 -0.1,-0.3 -0.1,-0.5 -0.1,-0.3 -0.1,-0.6 -0.1,-0.9 0,-2.1 1.1,-4.2 1.4,-6.4 0,-0.2 0,-0.3 0,-0.5 0,-0.2 0,-0.3 0,-0.5 0,-0.2 0,-0.3 0,-0.5 0,-0.2 0,-0.3 -0.1,-0.5 -0.1,-0.9 -0.6,-1.8 -1.4,-2.8 -0.1,-0.1 -0.2,-0.2 -0.3,-0.3 -0.1,-0.1 -0.2,-0.2 -0.3,-0.3 -4.8,-4.4 -21.1,-8.8 -24.6,-14.2 7.3,5.2 18.4,9 22.6,10.6 0.1,0 0.2,0.1 0.3,0.1 0.2,0.1 0.4,0.1 0.5,0.2 0.1,0 0.2,0.1 0.2,0.1 0,0 0,-0.1 0,-0.1 0,-0.2 0,-0.4 -0.1,-0.7 0,-0.2 -0.1,-0.5 -0.1,-0.8 -0.1,-0.5 -0.1,-1 -0.2,-1.6 -0.4,-3.2 -1,-8 -1.4,-12.2 0,-0.3 0,-0.5 -0.1,-0.8 0,-0.5 -0.1,-1 -0.1,-1.5 0,-0.7 -0.1,-1.4 -0.1,-2 0,-0.2 0,-0.4 0,-0.6 0,-1.5 0,-3 0,-4.4 0,-0.7 0,-1.5 0,-2.2 0,-0.7 0,-1.5 0,-2.2 -0.1,-5.9 -0.6,-11.8 -1.5,-17.6 -0.1,-0.7 -0.3,-1.5 -0.4,-2.2 -0.4,-2.2 -0.9,-4.3 -1.5,-6.5 -0.8,-2.3 -1.6,-4.6 -2.6,-6.8 -1,-2.2 -2,-4.4 -3.2,-6.6 -0.4,-0.8 -0.9,-1.3 -1.4,-1.8 -0.1,-0.1 -0.3,-0.2 -0.4,-0.3 -0.4,-0.3 -0.9,-0.5 -1.4,-0.8 0.1,0.5 -0.2,1 -0.5,1 -3.7,0.3 -6.6,2.4 -9.6,4.1 -3,1.7 -4.8,3.1 -7.6,3.6 0,0 0,0 0,0 -0.2,0.3 -0.7,0.7 -1.3,1.3 -1.7,1.5 -4.7,3.9 -7.8,7 -0.4,0.4 -0.9,0.9 -1.3,1.4 -0.8,0.8 -1.5,1.7 -2.3,2.6 -0.7,0.9 -1.4,1.8 -2.1,2.8 -1.2,5.5 4.1,15.8 5,17.6 0,0.1 0,0.1 0,0.2 0,0.1 0,0.2 0.1,0.3 0,0.1 0,0.2 0.1,0.3 0,0.1 0,0.1 0,0.2 0,0 3.7,-1.1 4.5,-1.4 0,0 0.1,0 0.1,0 3,-1.3 6.4,-5.1 9.5,-6.4 0.2,-0.1 0.4,-0.2 0.5,-0.2 0.1,0 0.1,-0.1 0.2,-0.1 0.1,-0.1 0.2,-0.1 0.3,-0.2 0.1,0 0.1,-0.1 0.2,-0.1 0.1,0 0.2,-0.1 0.3,-0.1 0.1,0 0.1,-0.1 0.2,-0.1 0.1,0 0.2,-0.1 0.3,-0.1 0.1,0 0.1,-0.1 0.2,-0.1 0.1,0 0.2,-0.1 0.2,-0.1 0.1,0 0.1,-0.1 0.2,-0.1 0.1,0 0.1,-0.1 0.2,-0.1 0.1,0 0.1,-0.1 0.2,-0.1 0.1,0 0.1,-0.1 0.2,-0.1 0.1,-0.1 0.2,-0.1 0.4,-0.2 l 0.2,-0.1 c 0.1,-0.1 0.2,-0.1 0.3,-0.2 0.1,0 0.1,-0.1 0.2,-0.1 0.1,0 0.2,-0.1 0.2,-0.1 0.1,0 0.1,-0.1 0.2,-0.1 0.1,0 0.2,-0.1 0.2,-0.1 0.1,0 0.1,-0.1 0.2,-0.1 0.1,0 0.2,-0.1 0.2,-0.1 0.1,0 0.1,-0.1 0.2,-0.1 0.1,0 0.2,-0.1 0.2,-0.1 0.1,0 0.1,-0.1 0.2,-0.1 0.1,0 0.2,-0.1 0.3,-0.1 0.1,0 0.2,-0.1 0.2,-0.1 0.1,0 0.2,-0.1 0.3,-0.1 0.1,0 0.2,-0.1 0.2,-0.1 0.1,0 0.2,-0.1 0.2,-0.1 0,0 0,0 0.1,0 v 0 0 c 0.2,-0.1 0.4,-0.1 0.5,-0.2 0.3,0 0.5,0 0.7,0.3 0.3,0.6 -0.1,1 -0.6,1.4 -1.7,1.2 -1.1,1.2 -2.9,2.3 -0.4,0.2 -0.8,0.6 -1.1,1 -2.7,3.4 -6.7,5.6 -10.9,6.6 l -7.5,1.8 c -0.7,1.9 -1.5,4.2 -2.5,6.7 -0.2,0.4 -0.3,0.8 -0.5,1.3 -0.3,0.9 -0.7,1.7 -1.1,2.6 -2.9,7 -6.4,14.8 -8.6,19.9 -0.3,0.6 -0.5,1.2 -0.8,1.8 -0.1,0.3 -0.3,0.7 -0.4,0.9 -0.4,0.9 -0.7,1.6 -0.8,2.1 -0.4,1.1 -0.8,2.2 -1.1,3.3 -0.5,1.7 -0.9,3.4 -1.3,5.1 -0.4,1.7 -0.9,3.4 -1.6,5 -0.2,0.4 -0.4,0.8 -0.6,1.2 -0.2,0.4 -0.4,0.8 -0.6,1.2 -0.2,0.4 -0.3,0.9 -0.3,1.3 0,0.6 0.3,1.2 0.7,1.7 0.4,0.5 1,0.8 1.7,0.8 v 0 c 0,0 0,0 0.1,0 21,0.3 40,-3.8 60.6,-2"
           inkscape:connector-curvature="0"
           style="fill:#ff9d12;stroke-width:0.70549077" />
        <path
           id="Fill-14"
           class="st6"
           d="m 154.5,51.3 c -0.3,-0.1 -0.6,-0.2 -0.8,-0.2 -0.2,-0.1 -0.6,-0.2 -0.7,-0.3 -13.9,-5.7 -17.4,-3.8 -18.3,-2.9 -0.1,0.1 -0.1,0.2 -0.2,0.3 -0.1,0.3 -0.2,0.5 -0.2,0.8 0,0.3 -0.1,0.5 0,0.8 0,0.5 0.2,1.1 0.5,1.6 0.1,0.2 0.3,0.4 0.4,0.6 0.5,0.5 1,0.8 1.5,0.9 0.7,0.1 1.4,0.2 2,0.2 0.2,0 0.4,0 0.6,0 2.5,0 5.2,-0.3 12.8,1.8 v 0 c 0.5,-0.9 1,-1.8 1.5,-2.7 0.4,-0.5 0.7,-0.8 0.9,-0.9"
           inkscape:connector-curvature="0"
           style="fill:#f47c06;stroke-width:0.70549077" />
        <path
           id="Fill-16"
           class="st7"
           d="m 204.3,164.6 c -0.2,-0.5 -0.4,-1 -0.6,-1.5 -0.1,-0.2 -0.1,-0.3 -0.2,-0.5 -0.2,-0.6 -0.3,-1 -0.3,-1 l -0.8,-0.5 c -4.2,-1.6 -15.3,-5.4 -22.6,-10.6 3.4,5.4 19.7,9.8 24.5,14.1"
           inkscape:connector-curvature="0"
           style="fill:#ff9300;stroke-width:0.70549077" />
        <path
           id="Fill-18"
           class="st8"
           d="m 98.6,143.7 c 0.6,-1.3 -2.6,-2.5 -2.6,-2.5 -2.4,-0.7 -2.6,-4.4 -0.7,-3.7 3.6,1.2 5,-0.2 10.1,-1.1 1.5,-0.3 5.6,0.9 5.6,0.9 l 27.5,-5.8 15.5,-15.5 2.7,-15.8 c 0.1,-0.5 -0.2,-1 -0.8,-1.1 l -27,-5.7 c 0,0 -2.8,17.3 -3.6,20.9 -0.1,0.6 -0.5,1.8 -1.6,2.1 -1,0.3 -1.8,-0.1 -2.5,-0.9 -0.1,-0.1 -0.1,-0.2 -0.2,-0.3 -1.8,-2.5 -2.1,-2.6 -4.4,-0.3 -0.8,0.8 -1.7,1.1 -2.7,0.7 -0.1,0 -0.1,-0.1 -0.2,-0.1 -0.6,-0.7 -1.1,-1.5 -1.9,-1.9 -1.3,-0.6 -1.5,-1.6 -1.3,-2.9 0.5,-2.2 3.6,-20.4 3.6,-20.4 L 88.9,85 c 0.3,0.1 0.6,0.4 0.5,0.7 l -12.1,61.6 c 0,0 0.1,0 0.2,0.1 0.1,0 0.1,0 0.2,0.1 l 11.4,2.1 c 2.3,-0.3 7.4,-1.4 9.5,-5.9"
           inkscape:connector-curvature="0"
           style="fill:#ff7c00;stroke-width:0.70549077" />
        <path
           id="Fill-20"
           class="st8"
           d="m 114.6,148.1 c 0,0 -3.1,2.7 -6.7,4.9 l 35.7,6.5 c 0.2,0 0.4,0.1 0.6,0 0.4,0 0.8,-0.1 1.2,-0.3 0.5,-0.2 1,-0.6 1.3,-1.1 0.2,-0.3 0.4,-0.7 0.4,-1.1 l 1.3,-7.6 1.3,-7.6 -5.7,4.9 z"
           inkscape:connector-curvature="0"
           style="fill:#ff7c00;stroke-width:0.70549077" />
        <path
           id="Fill-22"
           class="st9"
           d="M 70.1,138.3 81.4,84.9 c 0,0 0,0.1 0,0.1 0,0 0,0.1 0,0.1 l -11.3,53.2 c 0,0.1 0,0.2 0,0.3 0,0 0,0 0,0 0,-0.1 0,-0.2 0,-0.3"
           inkscape:connector-curvature="0"
           style="fill:#edac66;stroke-width:0.70549077" />
        <path
           id="Fill-24"
           class="st9"
           d="m 70.4,139.4 c 0,0 0,0 0,0 l 6.7,7.8 c 0,0 0,0 0,0 0,0 0,0 0,0 l -6.7,-7.8 c 0,0 0,0 0,0"
           inkscape:connector-curvature="0"
           style="fill:#edac66;stroke-width:0.70549077" />
        <path
           id="Fill-26"
           class="st9"
           d="m 70.2,139.1 c 0,0 0,0 0,0 0,0 0,0 0,0"
           inkscape:connector-curvature="0"
           style="fill:#edac66;stroke-width:0.70549077" />
        <path
           id="Fill-28"
           class="st10"
           d="m 215.5,275.7 c 0.4,-0.2 0.9,-0.4 1.4,-0.6 0.2,-0.1 0.4,-0.2 0.6,-0.3 2.3,-1.1 5.3,-2.4 5.3,-2.4 0,0 1.3,-0.8 3,-1.6 0.6,-0.3 1.3,-0.7 1.9,-1 1.1,-0.6 2.2,-1.1 3.1,-1.4 0.2,0.1 0.5,0.1 0.7,0.2 0.5,-0.4 0.7,-0.9 0.7,-1.4 0,-0.1 0,-0.2 0,-0.3 0,-0.2 -0.1,-0.4 -0.1,-0.6 -0.2,-0.6 -0.4,-1.2 -0.4,-1.9 0,-0.2 0,-0.4 0.1,-0.7 0,-0.1 0.1,-0.2 0.1,-0.4 0,-0.1 0,-0.2 -0.1,-0.4 -0.1,-0.4 -0.4,-0.6 -0.7,-0.7 -0.2,-0.1 -0.5,-0.2 -0.7,-0.3 -0.1,0 -0.1,-0.1 -0.2,-0.1 -0.4,-0.2 -0.6,-0.5 -0.7,-0.8 0,-0.1 -0.1,-0.2 -0.1,-0.3 -0.1,-0.3 -0.1,-0.5 -0.1,-0.8 0,-0.2 -0.1,-0.5 -0.2,-0.8 0,-0.1 -0.1,-0.2 -0.1,-0.3 -0.2,-0.4 -0.5,-0.8 -0.8,-1 -1,-0.5 -1.8,-1.1 -2.5,-1.6 -0.3,-0.3 -0.6,-0.5 -0.9,-0.7 -0.8,-0.7 -1.3,-1.3 -1.6,-1.8 -0.1,-0.1 -0.2,-0.3 -0.2,-0.4 -0.1,-0.1 -0.1,-0.2 -0.2,-0.2 -0.8,-1 -1.6,-2 -2.4,-2.9 -3.5,-4.1 -7.6,-7.8 -11.5,-11.5 -2.8,-2.7 -5,-5.7 -6.4,-9.1 -0.4,-1.1 -0.8,-2.3 -1.1,-3.5 -0.1,-0.4 -0.2,-0.8 -0.2,-1.2 -0.2,-1.3 -0.3,-2.5 -0.2,-3.9 0,-1.4 0.1,-2.7 0.2,-4.1 0.2,-2.7 0.5,-5.4 0.8,-8.1 0.2,-1.3 0.3,-2.7 0.5,-4 0.2,-1.5 0.4,-3 0.6,-4.5 0.5,-3.7 1,-7.5 0.8,-11.3 0,-0.8 -0.1,-1.5 -0.2,-2.3 -20.5,-1.8 -39.6,2.3 -60.1,1.6 -1.3,4.7 -2.6,9.4 -4,14 -1.3,4.7 -2.7,9.3 -4.1,14 -2.7,9.3 -5.5,18.7 -8.3,28 -2.3,7.7 -4.6,15.5 -6.9,23.2 -0.6,2 -1.3,4 -2.6,5.7 -0.8,1.1 -1.8,2.6 -0.4,3.9 0.4,-0.3 1.1,-0.3 1.9,-0.1 1.9,0.9 4.3,1.6 5.8,1.8 2,0.4 5.4,0.6 8,2.1 0.1,0.2 0.2,0.3 0.2,0.5 1.9,0.1 4,0.3 4.4,-1.9 0.3,-1.4 -0.5,-2.7 -0.2,-4.2 0.2,-1.4 1.5,-3.1 1.4,-4.4 -0.3,-2.7 0.4,-4.7 1.7,-6.8 2,-3.4 4.3,-6.6 6.4,-9.9 0.7,-1.1 1.2,-2.1 1.2,-3.5 -1.7,-0.9 -1.9,-2.2 -1.4,-3.9 0.4,-1.5 1.1,-2.9 2.2,-3.8 2,-1.6 2.7,-3.6 3,-5.9 0.4,-3.5 2.6,-6 4.8,-8.4 2.1,-2.2 3.4,-4.6 3.1,-7.7 -0.2,-2.6 0.3,-5 1.5,-7.3 1.3,-2.4 0.4,-4 -2.4,-3.7 -5.3,0.4 -4.8,-1.2 -2.8,-5 0.6,-1.2 1.2,-2.5 1.7,-3.7 0.9,-2.1 0.9,-4.1 -0.4,-6.1 -0.4,-0.7 -0.9,-1.5 -1.1,-2.3 -0.3,-1.3 0.3,-2.4 1.6,-2.6 1.2,-0.2 1.7,0.7 1.7,1.8 0.1,3.9 2.1,7 4.2,10.1 2.1,3.1 4,6.2 5.7,9.5 1.1,2.2 1.5,4.3 0.3,6.5 -0.1,0.2 -0.1,0.3 -0.2,0.5 1.9,4.5 4.2,8.8 6.5,13.1 1.4,2.5 2.8,5 4.1,7.5 2.9,5.5 6.7,10.2 11.7,14.1 5.1,4 10.1,8 14.8,12.5 2.9,2.8 5.3,4.4 5.9,8.6 0.1,0.9 0.4,1.7 1.2,1.9 0.3,0.1 0.6,0.1 0.9,0 0,-0.1 0.1,-0.2 0.2,-0.3 0,0.1 0.3,-0.2 0.6,-0.4"
           inkscape:connector-curvature="0"
           style="fill:#ff7000;stroke-width:0.70549077" />
        <path
           id="Fill-30"
           class="st11"
           d="m 217.6,280.6 v 0 c 0,0.1 0,0.1 0,0.2 0,-0.1 0,-0.1 0,-0.2 z"
           inkscape:connector-curvature="0"
           style="fill:#525379;stroke-width:0.70549077" />
        <path
           id="Fill-32"
           class="st11"
           d="m 225.5,290.9 v 0 c 0,0 0,0 0,0 0,0 0,0 0,0 0,0 0,0 0,0"
           inkscape:connector-curvature="0"
           style="fill:#525379;stroke-width:0.70549077" />
        <path
           id="Fill-38"
           class="st12"
           d="m 169.7,218.5 c 1.2,-2.2 0.8,-4.3 -0.3,-6.5 -1.7,-3.3 -3.6,-6.4 -5.7,-9.5 -2.1,-3.1 -4.1,-6.2 -4.2,-10.1 0,-1.1 -0.5,-2 -1.7,-1.8 -1.3,0.2 -1.9,1.3 -1.6,2.6 0.2,0.8 0.6,1.6 1.1,2.3 1.2,2 1.3,4 0.4,6.1 -0.6,1.3 -1.1,2.5 -1.7,3.7 -2,3.8 -2.6,5.4 2.8,5 2.8,-0.2 3.8,1.3 2.4,3.7 -1.3,2.3 -1.8,4.7 -1.5,7.3 0.3,3.1 -1,5.4 -3.1,7.7 -2.2,2.4 -4.4,4.9 -4.8,8.4 -0.3,2.3 -1,4.3 -3,5.9 -1.1,0.9 -1.8,2.3 -2.2,3.8 -0.5,1.7 -0.2,3.1 1.4,3.9 0.1,-0.1 0.2,-0.3 0.3,-0.3 2.8,-3.7 5.5,-7.4 8.5,-10.9 0,0 0.1,-0.1 0.1,-0.1 5.3,-6.3 9.6,-13.1 12.8,-20.7 -0.2,-0.2 -0.1,-0.4 0,-0.5"
           inkscape:connector-curvature="0"
           style="fill:#ff6d00;stroke-width:0.70549077" />
        <path
           id="Fill-40"
           class="st13"
           d="m 124.9,279.2 c -1.5,-0.3 -3.8,-0.9 -5.8,-1.8 -0.7,-0.2 -1.4,-0.2 -1.9,0.1 -0.3,0.2 -0.5,0.5 -0.4,1 0.6,2.3 -0.5,1 -0.7,3 1.2,0.6 2.4,1.1 3.5,1.7 0.7,0.3 1,1.1 0.7,1.8 -0.5,1 -1.3,0.5 -2,0.2 -1,-0.4 -1.8,-1.2 -3,-0.8 -0.2,0.2 -0.3,0.6 -0.5,1 0,0.1 0,0.2 0,0.3 1.4,0.6 2.6,1.5 3.8,2.4 0.5,0.3 0.8,0.7 0.7,1.3 -0.2,0.6 -0.7,0.5 -1.3,0.6 -1.5,0.1 -2.7,-0.9 -4,-1.4 -0.3,0.6 -0.7,1.2 -0.5,1.9 1,0.4 1.9,0.9 2.9,1.3 0.9,0.4 1.7,0.9 1.3,1.8 -0.4,0.8 -1.4,0.7 -2.3,0.3 -2.9,-1.2 -2.3,-1.3 -3,0.3 -0.1,0.2 -0.1,0.2 -0.1,0.4 1,0.5 1.9,0.9 2.9,1.4 0.7,0.4 1.2,0.9 0.9,1.6 -0.3,0.9 -1.1,0.8 -1.9,0.5 -0.8,-0.3 -1.6,-0.7 -2.4,-1.1 -0.3,0.7 -0.6,1.4 -0.8,2.2 -0.7,2.7 -4,3.8 -6.2,2.1 -1.6,-1.2 -3.4,-2.3 -5.4,-3.1 -2.2,-0.9 -4.1,-0.8 -5.8,0.6 -1.3,1 -2.5,2.1 -3,3.5 -0.2,0.4 -0.1,0.8 -0.1,1.2 8.8,3.7 17.5,7.5 26.1,11.6 0.1,-0.1 0.1,-0.3 0.2,-0.4 0.7,-1.2 1.1,-2.6 1.1,-4 0,-0.3 0.1,-1.4 0.1,-1.5 3.2,-9.4 7,-15.8 12.5,-24.1 0.3,-0.5 0.6,-0.9 1.3,-1 1.6,-0.2 1.8,-1.1 1.3,-2.2 -0.1,-0.2 -0.1,-0.3 -0.2,-0.5 -2.5,-1.6 -6,-1.9 -8,-2.2"
           inkscape:connector-curvature="0"
           style="fill:#ff9100;stroke-width:0.70549077" />
        <path
           id="Fill-42"
           class="st14"
           d="m 119.4,289.2 c 0.2,-0.5 -0.2,-0.9 -0.7,-1.3 -1.2,-0.9 -2.4,-1.8 -3.8,-2.4 0,0 0,0 0,0 -0.3,0.9 -0.5,1.9 -0.8,2.8 1.3,0.5 2.5,1.4 4,1.4 0.5,0 1.1,0 1.3,-0.5"
           inkscape:connector-curvature="0"
           style="fill:#ff4e00;stroke-width:0.70549077" />
        <path
           id="Fill-44"
           class="st14"
           d="m 118.3,285.1 c 0.8,0.3 1.6,0.8 2,-0.2 0.5,-0.9 -0.1,-1.6 -1,-2 -1.1,-0.5 -2.1,-1 -3.2,-1.5 -0.5,0.9 -0.9,1.8 -0.8,2.8 0,0 0,0 0,0 1.2,-0.4 2,0.5 3,0.9"
           inkscape:connector-curvature="0"
           style="fill:#ff4e00;stroke-width:0.70549077" />
        <path
           id="Fill-46"
           class="st14"
           d="m 115.5,293.8 c 0.9,0.4 1.9,0.5 2.3,-0.3 0.4,-0.9 -0.4,-1.5 -1.3,-1.8 -1,-0.4 -2,-0.9 -2.9,-1.3 -0.4,1.2 -0.7,1.2 -0.5,2.7 0.7,0.1 1.3,0.2 2.4,0.7"
           inkscape:connector-curvature="0"
           style="fill:#ff4e00;stroke-width:0.70549077" />
        <path
           id="Fill-48"
           class="st14"
           d="m 116.2,297.5 c 0.3,-0.7 -0.2,-1.3 -0.9,-1.6 -1,-0.5 -1.9,-0.9 -2.9,-1.4 -0.4,0.7 -0.8,1.5 -0.6,2.4 0.8,0.4 1.6,0.8 2.4,1.1 0.9,0.3 1.7,0.3 2,-0.5"
           inkscape:connector-curvature="0"
           style="fill:#ff4e00;stroke-width:0.70549077" />
        <path
           id="Fill-50"
           class="st14"
           d="m 90.4,303.3 c -0.9,1.1 -0.2,1.6 1,2.1 7.7,3.6 15.5,7.1 23.2,10.8 2,1 2,0 2,-1.3 -8.6,-4.1 -17.3,-7.9 -26.2,-11.6 0.1,0 0.1,0 0,0"
           inkscape:connector-curvature="0"
           style="fill:#ff4e00;stroke-width:0.70549077" />
        <path
           id="Fill-52"
           class="st14"
           d="m 87.3,317.1 c 0,0.4 7.2,0.7 16.1,0.7 8.9,0 16.1,-0.3 16.1,-0.7 l -16.1,-0.7 c -8.9,-0.1 -16.1,0.3 -16.1,0.7"
           inkscape:connector-curvature="0"
           style="fill:#ff4e00;stroke-width:0.70549077" />
        <path
           id="Fill-54"
           class="st14"
           d="m 218.6,315.7 c 0,0.4 7.2,0.7 16.1,0.7 8.9,0 16.1,-0.3 16.1,-0.7 L 234.7,315 c -8.9,0 -16.1,0.3 -16.1,0.7"
           inkscape:connector-curvature="0"
           style="fill:#ff4e00;stroke-width:0.70549077" />
        <path
           id="Fill-56"
           class="st14"
           d="m 223.5,285.6 c 0.2,-0.1 0.5,-0.2 0.7,-0.4 0.7,-0.4 1.4,-0.8 1.8,-1.4 0.1,-0.1 0.2,-0.2 0.2,-0.3 0.1,-0.2 0.3,-0.4 0.2,-0.7 0,-0.1 0,-0.2 -0.1,-0.4 -0.1,-0.1 -0.1,-0.1 -0.2,-0.2 -0.3,-0.3 -0.7,-0.2 -1.2,-0.1 -0.4,0.1 -0.8,0.2 -1.2,0.3 -0.4,0.1 -0.8,0.3 -1.3,0.4 -0.8,0.3 -1.7,0.6 -2.3,1 0.6,0.8 1.1,1.6 1.7,2.4 0.3,-0.2 0.7,-0.3 1,-0.5 0.3,0 0.5,0 0.7,-0.1"
           inkscape:connector-curvature="0"
           style="fill:#ff4e00;stroke-width:0.70549077" />
        <path
           id="Fill-58"
           class="st14"
           d="m 220.7,281.6 c 0.2,-0.1 0.3,-0.2 0.5,-0.3 0.5,-0.2 1,-0.5 1.3,-0.7 0.4,-0.2 0.8,-0.4 1.1,-0.7 0.1,-0.1 0.1,-0.2 0.2,-0.3 0,-0.1 0,-0.2 0,-0.3 0,-0.1 0,-0.2 -0.1,-0.3 -0.2,-0.4 -0.4,-0.6 -0.6,-0.7 -0.1,0 -0.2,-0.1 -0.3,-0.1 -0.4,-0.1 -0.8,0.1 -1.3,0.3 -1.1,0.5 -2.8,1.6 -3.9,2.1 v 0 0 c 0,0.1 0,0.1 0.1,0.2 0.4,0.9 0.8,1.6 1.6,2.2 0.1,-0.6 0.7,-1 1.4,-1.4"
           inkscape:connector-curvature="0"
           style="fill:#ff4e00;stroke-width:0.70549077" />
        <path
           id="Fill-60"
           class="st14"
           d="m 226.7,288.8 c 0.2,-0.1 0.5,-0.2 0.7,-0.4 0.2,-0.1 0.3,-0.2 0.5,-0.3 0.4,-0.3 0.8,-0.7 0.8,-1.1 0,-0.2 0,-0.4 -0.1,-0.6 -0.1,-0.1 -0.1,-0.2 -0.2,-0.3 -0.1,-0.1 -0.1,-0.1 -0.2,-0.2 -0.5,-0.3 -1.2,0 -1.8,0.3 -0.9,0.5 -1.9,1 -2.9,1.4 0.2,0.3 0.3,0.5 0.4,0.7 0.2,0.6 0.3,1 1.1,1.9 0,0 0,0 0,0 0.7,-0.7 1.1,-1.1 1.7,-1.4"
           inkscape:connector-curvature="0"
           style="fill:#ff4e00;stroke-width:0.70549077" />
        <path
           id="Fill-62"
           class="st14"
           d="m 229.9,292 c 0.6,-0.3 1,-0.7 1,-1.3 0,-0.1 0,-0.2 0,-0.3 0,-0.1 -0.1,-0.2 -0.1,-0.3 -0.1,-0.2 -0.2,-0.3 -0.3,-0.4 -0.2,-0.1 -0.4,-0.2 -0.7,-0.2 -0.3,0 -0.5,0.1 -0.8,0.2 -0.9,0.4 -2.1,0.8 -3.1,1.3 0,0 -0.1,0 -0.1,0.1 0,0 0,0 0,0 0.3,0.8 0.6,1.9 1.4,2.3 0.2,-0.1 0.4,-0.2 0.7,-0.3 0.6,-0.3 1.4,-0.8 2,-1.1"
           inkscape:connector-curvature="0"
           style="fill:#ff4e00;stroke-width:0.70549077" />
        <path
           id="Fill-64"
           class="st14"
           d="m 239.4,306.8 -5.1,5.7 -7.6,0.6 -7.6,0.6 c -0.1,0 -0.1,0 -0.2,0.1 -0.1,0.1 -0.2,0.2 -0.2,0.3 0,0.5 0.4,1 1,0.9 l 15.2,-0.8 10.1,-11.9 c 0.3,-0.3 0.3,-0.8 0,-1.1 l -0.2,-0.2 c -0.1,-0.1 -0.3,-0.1 -0.4,0 v 0 0 z"
           inkscape:connector-curvature="0"
           style="fill:#ff4e00;stroke-width:0.70549077" />
        <path
           id="Fill-66"
           class="st14"
           d="m 232,305.8 c 0.4,0.2 0.8,0.3 1.2,0.6 0.1,0.1 0.2,0.1 0.2,0.1 0,-0.1 -1.4,-1.2 -2.6,-1.9 -0.4,-0.2 -0.9,-0.4 -1.2,-0.5 -0.2,-0.1 -0.5,-0.1 -0.7,-0.1 0,0 0,0 0,0 -0.3,0.1 -0.5,1.1 -0.5,1.1 0,0 1.3,0.1 2.8,0.5 0.2,0 0.5,0.1 0.8,0.2"
           inkscape:connector-curvature="0"
           style="fill:#ff4e00;stroke-width:0.70549077" />
        <path
           id="Fill-68"
           class="st15"
           d="m 172.3,75.8 c 0,-0.1 -0.1,-0.1 -0.1,-0.2 0,0 0,0 0,0 0,-0.1 -0.1,-0.1 -0.1,-0.2 0,0 0,0 0,0 0,-0.1 -0.1,-0.1 -0.1,-0.2 0,0 0,0 0,0 0,-0.1 -0.1,-0.1 -0.1,-0.2 0,0 0,0 0,0 0,-0.1 -0.1,-0.1 -0.1,-0.2 0,0 0,0 0,0 0,-0.1 0,-0.1 0,-0.2 v 0 c 0,-0.1 0,-0.1 0,-0.2 0,0 0,0 0,0 0,-0.1 0,-0.1 0,-0.2 0,0 0,0 0,0 0,-0.3 0.1,-0.7 0,-1 0,-0.1 0,-0.1 0,-0.2 v -0.1 c 0,-0.1 0,-0.2 0,-0.3 0,0 0,-0.1 0,-0.1 0,-0.1 0,-0.2 0,-0.2 0,-0.1 0,-0.1 0,-0.2 0,0 0,-0.1 0,-0.1 v -0.2 c 0,0 0,-0.1 0,-0.1 0,-0.1 0,-0.1 0,-0.2 0,0 0,-0.1 0,-0.1 0,-0.1 0,-0.1 0,-0.2 0,0 0,-0.1 0,-0.1 0,-0.1 0,-0.2 0,-0.3 0,0 0,0 0,0 0,-0.1 0,-0.2 0,-0.2 0,0 0,-0.1 0,-0.1 0,-0.1 0,-0.1 0,-0.2 0,0 0,-0.1 0,-0.1 0,-0.1 0,-0.1 0,-0.2 0,0 0,-0.1 0,-0.1 0,-0.1 0,-0.1 -0.1,-0.2 0,0 0,-0.1 0,-0.1 0,-0.1 0,-0.1 -0.1,-0.2 0,0 0,-0.1 0,-0.1 0,-0.1 -0.1,-0.2 -0.1,-0.3 -0.6,-1.3 -0.2,-2.2 0.6,-3 0.7,-0.8 2.7,-0.9 3.7,-0.4 1,0.6 1.9,1.2 2,2.5 0.1,0.9 0.3,1.8 0.1,2.8 -0.3,2 0.4,3.2 2.3,3.8 0.9,0.3 1.8,0.5 2.6,0.7 0.5,0 0.9,0 1.4,0 0.2,0 0.3,0 0.5,-0.1 0.9,-0.1 1.6,-0.5 2.3,-1.1 0.4,-0.3 0.6,-0.8 0.6,-1.3 0,-0.2 -0.1,-0.3 -0.1,-0.5 -0.3,-0.6 -0.8,-0.3 -1.2,-0.3 -0.5,0 -0.8,0 -1.1,-0.2 -0.1,0 -0.1,-0.1 -0.2,-0.2 -0.2,-0.2 -0.3,-0.5 -0.5,-0.9 0,-0.2 -0.1,-0.3 -0.1,-0.5 -0.1,-0.5 -0.1,-0.9 0,-1.3 0.1,-0.6 0.3,-1.1 0.5,-1.6 0.3,-0.6 0.5,-1.2 0.7,-1.8 0.4,-1.2 0.7,-2.4 0.9,-3.6 0.1,-0.6 0.2,-1.2 0.2,-1.9 0.1,-0.8 0.1,-1.6 0.1,-2.3 0,-0.4 -0.1,-0.7 -0.1,-1.1 0,-0.4 0,-0.8 -0.1,-1.1 -0.3,0.1 -0.7,0.2 -1.2,0.2 -1.3,0.1 -2.6,0.2 -3.4,0.3 -4.3,-0.1 -8.3,-0.7 -12.2,-1.5 0.1,0.1 0.1,0.3 0.2,0.4 0,0 0,0.1 0.1,0.1 0,0.1 0.1,0.2 0.1,0.3 0,0.1 0,0.1 0.1,0.2 0,0.1 0.1,0.2 0.1,0.3 0,0 0,0.1 0,0.1 0,0.1 0,0.2 0.1,0.3 0,0 0,0.1 0,0.1 0,0.1 0,0.3 0.1,0.4 0,0 0,0 0,0.1 0,0.1 0,0.2 0,0.4 0,0 0,0.1 0,0.1 0,0.1 0,0.2 0,0.3 0,0.1 0,0.1 0,0.2 0,0.1 0,0.2 0,0.3 0,0.1 0,0.1 0,0.1 0,0.1 0,0.2 -0.1,0.3 0,0 0,0.1 0,0.1 0,0.1 -0.1,0.3 -0.1,0.4 0,0 0,0.1 0,0.1 0,0.1 -0.1,0.2 -0.1,0.3 0,0.1 0,0.1 -0.1,0.1 0,0.1 -0.1,0.2 -0.1,0.3 0,0.1 0,0.1 -0.1,0.2 0,0.1 -0.1,0.2 -0.1,0.3 0,0 -0.1,0.1 -0.1,0.1 0,0 0,0 0,0.1 0,0 -0.1,0.1 -0.1,0.1 -0.1,0.1 -0.1,0.2 -0.2,0.3 v 0 c -0.2,0.3 -0.3,0.5 -0.5,0.8 -0.1,0.2 -0.3,0.4 -0.4,0.5 -0.1,0.1 -0.1,0.1 -0.1,0.2 0,0 -0.1,0.1 -0.1,0.1 0,0.1 -0.1,0.1 -0.1,0.2 0,0 -0.1,0.1 -0.1,0.1 0,0.1 -0.1,0.1 -0.1,0.2 0,0.1 -0.1,0.1 -0.1,0.2 0,0.1 -0.1,0.1 -0.1,0.2 0,0.1 -0.1,0.1 -0.1,0.2 0,0.1 -0.1,0.1 -0.1,0.2 0,0.1 -0.1,0.1 -0.1,0.2 0,0.1 0,0.1 -0.1,0.2 0,0.1 0,0.1 -0.1,0.2 0,0.1 0,0.1 -0.1,0.2 0,0.1 0,0.1 -0.1,0.2 0,0.1 0,0.1 -0.1,0.2 0,0.1 0,0.1 0,0.2 0,0.1 0,0.1 0,0.2 0,0.1 0,0.1 0,0.2 0,0.1 0,0.1 0,0.2 0,0.1 0,0.1 0,0.2 0,0.1 0,0.1 0,0.2 0,0.1 0,0.1 0,0.2 0,0.1 0,0.1 0,0.2 0,0.1 0,0.1 0,0.2 0,0.1 0,0.1 0,0.2 0,0 0,0.1 0,0.2 0,0.1 0,0.2 0,0.2 0,0 0,0.1 0,0.1 0,0.1 0,0.2 0,0.3 0,0 0,0.1 0,0.1 0,0.1 0,0.3 0,0.4 0.3,1.8 0.1,3.6 0.5,5.3 0.4,1.5 -0.4,2.5 -1.6,3.2 -1.5,0.8 -1.8,0.6 -3,-0.7 -0.8,-0.8 -1,-1.8 -1.5,-2.7 -1.5,-2.9 -1.7,-3 -4.8,-2.4 -1.3,0.3 -2.5,0.7 -4,0.7 -1.2,-3 -0.6,-6.3 -1.5,-9.3 -0.4,-0.1 -0.6,0.4 -0.9,0.5 -0.3,0.5 -0.7,1 -1,1.5 -1,1.5 -2,3 -2.9,4.5 0.2,0.2 0.3,0.4 0.4,0.5 0,0 0.1,0.1 0.1,0.1 1.5,0.6 2.2,0.8 2.4,1.3 0.1,0.1 0.1,0.3 0.1,0.4 0,0.5 -0.2,1.3 -0.5,2.5 0,0.1 -0.9,2.8 -1,5.8 0,0.7 0,1.3 0.1,2 0.1,0.7 0.3,1.3 0.5,1.9 0.4,0.9 0.9,1.8 1.7,2.4 2.6,1.9 5.1,3 7.4,3.5 1.7,0.4 3.3,0.4 4.7,0.3 4.3,-0.5 7.4,-2.9 9.1,-4.6 0.3,-0.3 0.5,-0.6 0.6,-0.9 0.1,-0.3 0.2,-0.7 0.2,-1.1 v 0 c 0.4,-2.3 0,-4.9 0.1,-7.3"
           inkscape:connector-curvature="0"
           style="fill:#ff5300;stroke-width:0.70549077" />
        <path
           id="Fill-70"
           class="st16"
           d="m 150.3,62.4 c 0.8,3.1 0.3,6.3 1.5,9.3 1.5,0 2.8,-0.4 4,-0.7 3.1,-0.6 3.2,-0.5 4.8,2.4 0.5,0.9 0.7,1.9 1.5,2.7 1.2,1.3 1.5,1.5 3,0.7 1.3,-0.7 2,-1.8 1.6,-3.2 -0.4,-1.8 -0.3,-3.6 -0.5,-5.3 0,-0.1 0,-0.3 0,-0.4 0,0 0,-0.1 0,-0.1 0,-0.1 0,-0.2 0,-0.3 0,0 0,-0.1 0,-0.1 0,-0.1 0,-0.2 0,-0.2 0,0 0,-0.1 0,-0.1 0,-0.1 0,-0.1 0,-0.2 0,-0.1 0,-0.1 0,-0.2 0,-0.1 0,-0.1 0,-0.2 0,-0.1 0,-0.1 0,-0.2 0,-0.1 0,-0.1 0,-0.2 0,-0.1 0,-0.1 0,-0.2 0,-0.1 0,-0.1 0,-0.2 0,-0.1 0,-0.1 0,-0.2 0,-0.1 0,-0.1 0,-0.2 0,-0.1 0,-0.1 0,-0.2 0,-0.1 0,-0.1 0.1,-0.2 0,-0.1 0,-0.1 0.1,-0.2 0,-0.1 0,-0.1 0.1,-0.2 0,-0.1 0,-0.1 0.1,-0.2 0,-0.1 0,-0.1 0.1,-0.2 0,-0.1 0,-0.1 0.1,-0.2 0,-0.1 0.1,-0.1 0.1,-0.2 0,-0.1 0.1,-0.1 0.1,-0.2 0,-0.1 0.1,-0.1 0.1,-0.2 0,-0.1 0.1,-0.1 0.1,-0.2 0,-0.1 0.1,-0.1 0.1,-0.2 0,0 0.1,-0.1 0.1,-0.1 0,-0.1 0.1,-0.1 0.1,-0.2 0,0 0.1,-0.1 0.1,-0.1 0,0 0.1,-0.1 0.1,-0.1 0.4,-0.4 0.7,-0.9 1,-1.3 v 0 c 0.1,-0.1 0.1,-0.2 0.2,-0.3 0,0 0.1,-0.1 0.1,-0.1 0,0 0,0 0,-0.1 0,0 0.1,-0.1 0.1,-0.1 0,-0.1 0.1,-0.2 0.1,-0.3 0,-0.1 0,-0.1 0.1,-0.2 0,-0.1 0.1,-0.2 0.1,-0.3 0,0 0,-0.1 0.1,-0.1 0,-0.1 0.1,-0.2 0.1,-0.3 0,0 0,-0.1 0,-0.1 0,-0.1 0.1,-0.3 0.1,-0.4 0,0 0,-0.1 0,-0.1 0,-0.1 0,-0.2 0.1,-0.3 0,0 0,-0.1 0,-0.2 0,-0.1 0,-0.2 0,-0.3 0,-0.1 0,-0.1 0,-0.2 0,-0.1 0,-0.2 0,-0.3 0,0 0,-0.1 0,-0.1 0,-0.1 0,-0.2 0,-0.4 0,0 0,0 0,-0.1 0,-0.1 0,-0.3 -0.1,-0.4 0,0 0,-0.1 0,-0.1 0,-0.1 0,-0.2 -0.1,-0.3 0,-0.1 0,-0.1 0,-0.2 0,-0.1 -0.1,-0.2 -0.1,-0.3 0,-0.1 0,-0.1 -0.1,-0.2 0,-0.1 -0.1,-0.2 -0.1,-0.3 0,0 0,-0.1 -0.1,-0.1 -0.1,-0.1 -0.1,-0.3 -0.2,-0.4 -2.4,-0.5 -4.7,-1 -7,-1.7 -0.5,-0.1 -1.1,-0.3 -1.6,-0.4 0,0 0,0 -0.1,0 -0.4,-0.1 -0.8,-0.2 -1.2,-0.4 -1.9,-0.5 -3.4,-0.9 -4.7,-1.2 -0.2,0.1 -0.5,0.4 -0.8,0.9 -0.5,0.9 -1,1.8 -1.5,2.7 -1.3,2.5 -2.4,5.2 -2.8,8.1 0.4,0.3 0.5,-0.2 1,-0.1"
           inkscape:connector-curvature="0"
           style="fill:#fcb042;stroke-width:0.70549077" />
        <path
           id="Fill-72"
           class="st7"
           d="m 179.6,125.3 c 0.3,-0.4 0.7,-0.7 1.1,-1 1.8,-1.1 1.2,-1.1 2.9,-2.3 0.5,-0.4 0.9,-0.8 0.6,-1.4 -0.1,-0.3 -0.4,-0.3 -0.7,-0.3 -0.2,0.1 -0.4,0.1 -0.5,0.2 v 0 0 c -0.1,0 -0.2,0.1 -0.3,0.1 -0.1,0 -0.2,0.1 -0.2,0.1 -0.1,0 -0.2,0.1 -0.3,0.1 -0.1,0 -0.2,0.1 -0.2,0.1 -0.1,0 -0.2,0.1 -0.3,0.1 -0.1,0 -0.2,0.1 -0.2,0.1 -0.1,0 -0.2,0.1 -0.2,0.1 -0.1,0 -0.1,0.1 -0.2,0.1 -0.1,0 -0.2,0.1 -0.2,0.1 -0.1,0 -0.1,0.1 -0.2,0.1 -0.1,0 -0.2,0.1 -0.2,0.1 -0.1,0 -0.1,0.1 -0.2,0.1 -0.1,0 -0.2,0.1 -0.2,0.1 -0.1,0 -0.1,0.1 -0.2,0.1 -0.1,0.1 -0.2,0.1 -0.3,0.2 l -0.2,0.1 c -0.1,0.1 -0.2,0.1 -0.4,0.2 -0.1,0 -0.1,0.1 -0.2,0.1 -0.1,0 -0.1,0.1 -0.2,0.1 -0.1,0 -0.1,0.1 -0.2,0.1 -0.1,0 -0.1,0.1 -0.2,0.1 -0.1,0 -0.2,0.1 -0.2,0.1 -0.1,0 -0.1,0.1 -0.2,0.1 -0.1,0 -0.2,0.1 -0.3,0.1 -0.1,0 -0.1,0.1 -0.2,0.1 -0.1,0 -0.2,0.1 -0.3,0.1 -0.1,0 -0.1,0.1 -0.2,0.1 -0.1,0.1 -0.2,0.1 -0.3,0.2 -0.1,0 -0.1,0.1 -0.2,0.1 -0.2,0.1 -0.3,0.2 -0.5,0.2 -3,1.3 -6.4,5.1 -9.5,6.4 0,0 0,0 -0.1,0 -0.8,0.3 -4.5,1.4 -4.5,1.4 l -0.2,0.7 -0.2,0.7 7.5,-1.8 c 4.1,-0.5 8.1,-2.6 10.8,-6"
           inkscape:connector-curvature="0"
           style="fill:#ff9300;stroke-width:0.70549077" />
        <path
           id="Fill-74"
           class="st16"
           d="m 178.8,95 c 3.1,-1.7 6,-3.8 9.6,-4.1 0.3,0 0.6,-0.5 0.5,-1 0,-0.2 -0.1,-0.5 -0.3,-0.7 0,-0.1 -0.1,-0.2 -0.2,-0.3 -0.1,-0.2 -0.3,-0.5 -0.5,-0.8 -0.1,-0.2 -0.2,-0.3 -0.3,-0.5 -1.3,-2.3 -3.4,-6.2 -4.7,-9 -0.1,-0.3 -0.3,-0.6 -0.4,-0.9 -0.3,-0.9 -0.6,-1.6 -0.6,-2 -0.9,-0.2 -1.8,-0.4 -2.6,-0.7 -1.8,-0.7 -2.6,-1.9 -2.3,-3.8 0.1,-1 0,-1.8 -0.1,-2.8 -0.1,-1.3 -1,-2 -2,-2.5 -1,-0.5 -2.9,-0.4 -3.7,0.4 -0.8,0.9 -1.2,1.8 -0.6,3 0,0.1 0.1,0.2 0.1,0.3 0,0 0,0.1 0,0.1 0,0.1 0,0.1 0.1,0.2 0,0 0,0.1 0,0.1 0,0.1 0,0.1 0.1,0.2 0,0 0,0.1 0,0.1 0,0.1 0,0.1 0,0.2 0,0 0,0.1 0,0.1 0,0.1 0,0.1 0,0.2 0,0 0,0.1 0,0.1 0,0.1 0,0.2 0,0.2 0,0 0,0 0,0 0,0.1 0,0.2 0,0.3 0,0 0,0.1 0,0.1 0,0.1 0,0.1 0,0.2 0,0 0,0.1 0,0.1 0,0.1 0,0.1 0,0.2 0,0 0,0.1 0,0.1 v 0.2 c 0,0 0,0.1 0,0.1 0,0.1 0,0.1 0,0.2 0,0.1 0,0.2 0,0.2 0,0 0,0.1 0,0.1 0,0.1 0,0.2 0,0.3 v 0.1 c 0,0.1 0,0.1 0,0.2 0,0.3 0,0.7 0,1 0,0 0,0 0,0 0,0.1 0,0.1 0,0.2 0,0 0,0 0,0 0,0.1 0,0.1 0,0.2 v 0 c 0,0.1 0,0.1 0,0.2 0,0 0,0 0,0 0,0.1 0,0.1 0.1,0.2 0,0 0,0 0,0 0,0.1 0.1,0.1 0.1,0.2 0,0 0,0 0,0 0,0.1 0.1,0.1 0.1,0.2 0,0 0,0 0,0 0,0.1 0.1,0.1 0.1,0.2 0,0 0,0 0,0 0,0.1 0.1,0.1 0.1,0.2 -0.1,2.5 0.3,5 -1,7.4 0.5,2.1 0.7,4.3 0.7,6.5 0,1.7 -0.1,3.4 -0.3,4.8 -0.1,1.4 -0.3,2.6 -0.4,3.3 -0.1,0.6 -0.1,0.9 -0.1,0.9 0,0 0,0 0,0 3.7,-0.9 5.6,-2.3 8.5,-4"
           inkscape:connector-curvature="0"
           style="fill:#fcb042;stroke-width:0.70549077" />
        <path
           id="Fill-76"
           class="st17"
           d="m 153.9,46.7 c 1.8,-3.3 2.8,-6 4.8,-8.9 2.3,-3.4 5.3,-5.2 9.2,-4.9 3.1,0.2 0.8,1.6 0.8,6.1 0,3.2 -0.5,6.3 -1.9,9.2 -0.6,1.2 -1.6,2 -2.8,1.9 -0.1,0 -0.3,0 -0.4,0 -1.1,0 -2.5,0.1 -5.1,-0.9 -1.1,-0.4 -2.5,-1.3 -4.4,-1.9 -0.2,-0.1 -0.3,-0.4 -0.2,-0.6 m -0.7,1 v 0 c 0,0 0.1,0 0.4,0.2 0.1,0.1 0.3,0.2 0.4,0.3 2.2,1.4 8.1,5.1 6.5,4.7 0.5,0.2 1.1,0.3 1.6,0.4 2.3,0.6 4.6,1.2 7,1.7 3.9,0.8 7.9,1.4 12.2,1.5 0.8,-0.1 2.1,-0.2 3.4,-0.3 0.6,-0.1 1,-0.1 1.2,-0.2 0.2,-0.1 0.3,-0.2 0.4,-0.3 0,-0.1 0.1,-0.1 0.1,-0.2 0.1,-0.3 0.1,-0.6 0.1,-1.2 0,-1.1 0.1,-2.2 0.1,-3.3 0,-1.1 0,-2.2 -0.2,-3.3 -0.9,-7.1 -4.1,-12.4 -10.8,-14.8 -0.2,-0.1 -0.3,-0.2 -0.5,-0.4 -0.2,-0.2 -0.3,-0.4 -0.4,-0.5 -0.4,-0.9 -1,-1.4 -1.7,-1.6 -0.5,-0.1 -1.1,0 -1.6,0.3 -0.2,0.1 -0.3,0.2 -0.5,0.4 -0.3,0.3 -0.9,0.6 -1.3,0.7 -0.4,0.1 -0.9,0.1 -1.4,0.2 -1.4,0.1 -2.7,0.2 -4,0.5 -2.3,0.6 -4.2,1.9 -5.6,3.7 -0.3,0.3 -0.6,0.7 -0.9,1.1 -0.5,0.8 -1,1.6 -1.5,2.4 -0.6,1.1 -1.2,2.3 -1.8,3.4 -0.6,1.2 -1.1,2.3 -1.7,3.5 -0.3,0.7 -0.6,0.8 -1.4,0.6 -0.2,0 -0.3,-0.1 -0.5,-0.1 0.3,0.1 0.4,0.1 0.4,0.1 0,0 1.2,0.1 2,0.5"
           inkscape:connector-curvature="0"
           style="fill:#ff8500;stroke-width:0.70549077" />
        <path
           id="Fill-78"
           d="m 143,45.2 c -0.4,0 -0.8,0 -1.2,-0.1 -0.4,0 -0.8,0 -1.2,0 0.8,0.1 1.6,0.1 2.4,0.1"
           inkscape:connector-curvature="0"
           style="stroke-width:0.70549077" />
        <path
           id="Fill-80"
           d="m 137.6,45.7 c -0.1,0 -0.1,0 -0.2,0 0,0 0,0 -0.1,0 0,0 0,0 -0.1,0 0.1,0 0.3,-0.1 0.4,-0.1 0.1,0.1 0.1,0.1 0,0.1"
           inkscape:connector-curvature="0"
           style="stroke-width:0.70549077" />
        <path
           id="Fill-82"
           d="m 135.2,47.2 c -0.1,0.2 -0.3,0.3 -0.4,0.5 0,0 0,0 0,0.1 0,0 0,0 0,0.1 0.3,-0.4 0.6,-0.8 0.9,-1.1 -0.3,0.1 -0.4,0.2 -0.5,0.4"
           inkscape:connector-curvature="0"
           style="stroke-width:0.70549077" />
        <path
           id="Fill-84"
           class="st18"
           d="m 154.1,47.3 c 1.9,0.7 3.3,1.5 4.4,1.9 2.5,0.9 4,0.9 5.1,0.9 0.1,0 0.3,0 0.4,0 1.2,0.1 2.3,-0.7 2.8,-1.9 1.3,-2.9 1.9,-6 1.9,-9.2 0,-4.5 2.2,-5.9 -0.8,-6.1 -3.9,-0.2 -6.9,1.5 -9.2,4.9 -2,2.9 -2.9,5.6 -4.8,8.9 -0.1,0.2 0,0.5 0.2,0.6"
           inkscape:connector-curvature="0"
           style="fill:#ffa017;stroke-width:0.70549077" />
        <path
           id="Fill-86"
           class="st16"
           d="m 156.4,113.8 c 0,-0.1 0,-0.1 0,0 0,-0.1 0,-0.1 0,0 l -1.2,1.1 -1.2,1.1 -15.5,15.5 -27.5,5.8 c 0,0 -4.1,-1.1 -5.6,-0.9 -5.1,0.8 -6.5,2.3 -10.1,1.1 -1.9,-0.6 -1.7,3 0.7,3.7 0,0 3.2,1.2 2.6,2.5 -2.1,4.5 -7.2,5.6 -9.6,5.9 -0.7,0.1 -1.2,0.1 -1.2,0.1 0,0 0.1,0.7 1.1,1.7 0.3,0.3 0.7,0.6 1.1,0.9 0.3,0.2 0.7,0.5 1.2,0.8 0.2,0.1 0.3,0.2 0.5,0.3 0.3,0.2 0.7,0.4 1.1,0.5 0.2,0.1 0.4,0.2 0.6,0.3 1.5,0.6 3.5,1.3 5.9,1.9 1,0.2 2.3,0 3.7,-0.5 0.5,-0.2 0.9,-0.4 1.4,-0.6 1.2,-0.5 2.3,-1.2 3.5,-1.9 3.6,-2.3 6.7,-4.9 6.7,-4.9 l 29.4,-1.3 5.7,-4.9 11.5,-9.9 0.1,-0.1 c 0,0 0.1,-0.1 0.1,-0.1 0,0 0,-0.1 0,-0.2 0,-0.1 0,-0.1 0,-0.2 -0.9,-1.9 -6.2,-12.2 -5,-17.7"
           inkscape:connector-curvature="0"
           style="fill:#fcb042;stroke-width:0.70549077" />
        <path
           id="Fill-88"
           class="st19"
           d="m 111.8,113.6 c 0.8,0.4 1.3,1.2 1.9,1.9 0.1,0.1 0.1,0.1 0.2,0.1 1.1,0.4 1.9,0.1 2.7,-0.7 2.3,-2.3 2.6,-2.3 4.4,0.3 0.1,0.1 0.1,0.2 0.2,0.3 0.7,0.8 1.5,1.2 2.5,0.9 1,-0.3 1.4,-1.4 1.6,-2.1 0.8,-3.6 3.6,-20.9 3.6,-20.9 l -7.4,-1.6 -7.4,-1.6 c 0,0 -3.1,18.2 -3.6,20.4 -0.2,1.4 0.1,2.4 1.3,3"
           inkscape:connector-curvature="0"
           style="fill:#ff9000;stroke-width:0.70549077" />
        <path
           id="Fill-90"
           class="st20"
           d="m 88.9,85 -6.7,-1.4 c -0.1,0 -0.1,0 -0.2,0 -0.1,0 -0.2,0.1 -0.3,0.2 0,0 -0.1,0.1 -0.1,0.2 l -0.2,1 -11.3,53.4 c 0,0.1 0,0.2 0,0.3 0,0.1 0,0.3 0.1,0.4 0,0 0,0.1 0,0.1 0.1,0.1 0.1,0.2 0.2,0.3 0,0 0,0 0,0 l 6.8,7.8 0.1,0.2 v -0.1 L 89.4,85.8 C 89.5,85.4 89.2,85.1 88.9,85"
           inkscape:connector-curvature="0"
           style="fill:#ff6a00;stroke-width:0.70549077" />
        <path
           id="Fill-92"
           class="st18"
           d="m 134.7,47.9 c 0.9,-1 4.4,-2.8 18.3,2.9 0.1,0 0.5,0.2 0.7,0.3 0.2,0.1 0.5,0.2 0.8,0.2 1.3,0.3 2.8,0.7 4.7,1.2 0.4,0.1 0.9,0.2 1.2,0.4 0,0 0,0 0.1,0 1.6,0.4 -4.4,-3.4 -6.5,-4.7 -0.1,-0.1 -0.3,-0.2 -0.4,-0.3 -0.2,-0.1 -0.4,-0.2 -0.4,-0.2 v 0 c -0.8,-0.4 -1.7,-0.7 -1.7,-0.7 0,0 -0.1,-0.1 -0.4,-0.1 -1.1,-0.4 -4.4,-1.3 -7.9,-1.6 0,0 0,0 0,0 0,0 -0.1,0 -0.1,0 -0.8,-0.1 -1.6,-0.1 -2.4,0 0,0 0,0 0,0 0,0 0,0 0,0 v 0 c -0.1,0 -0.3,0 -0.4,0 -0.1,0 -0.3,0 -0.4,0 -0.2,0 -0.3,0 -0.5,0.1 -0.2,0 -0.5,0.1 -0.7,0.1 0,0 -0.1,0 -0.1,0 0,0 -0.1,0 -0.1,0 -0.1,0 -0.1,0 -0.2,0.1 -0.1,0 -0.1,0 -0.2,0.1 0,0 0,0 0,0 -0.1,0 -0.3,0.1 -0.4,0.1 v 0 c -0.2,0.1 -0.3,0.1 -0.5,0.2 -0.2,0.1 -0.3,0.1 -0.5,0.2 -0.3,0.1 -0.6,0.3 -0.8,0.5 -0.3,0.3 -0.6,0.6 -0.9,1.1 -0.3,0 -0.3,0 -0.3,0.1 0,0 0,0 0,0 -0.1,0 -0.1,0.1 -0.2,0.2 0,0.1 -0.1,0.1 -0.1,0.2 0,0 0,0 0,-0.1 0,0 0,0 0,-0.1 0.2,0 0.3,-0.1 0.3,-0.2"
           inkscape:connector-curvature="0"
           style="fill:#ffa017;stroke-width:0.70549077" />
        <g
           id="Group-96"
           transform="translate(0,0.761)"
           style="stroke-width:0.70549077">
          <g
             id="Clip-95"
             style="stroke-width:0.70549077" />
          <defs
             id="defs4745">
            <filter
               id="filter5004"
               filterUnits="userSpaceOnUse"
               x="0"
               y="0.2"
               width="315.79999"
               height="278.79999">
              <feColorMatrix
                 type="matrix"
                 values="1 0 0 0 0  0 1 0 0 0  0 0 1 0 0  0 0 0 1 0"
                 id="feColorMatrix5002" />
            </filter>
          </defs>
          <mask
             maskUnits="userSpaceOnUse"
             x="0"
             y="0.2"
             width="315.8"
             height="278.8"
             id="mask4848">
            <g
               class="st21"
               id="g4846"
               style="filter:url(#Adobe_OpacityMaskFilter_1_)">
              <polygon
                 id="polygon4844"
                 class="st1"
                 points="315.8,0.2 315.8,279 0,279 0,0.2 "
                 style="fill:#ffffff" />
            </g>
          </mask>
          <path
             id="Fill-94"
             class="st22"
             d="m 253,153.4 c -4.7,0 -9.3,0.5 -13.7,1.5 2.9,-10.5 4.5,-21.5 4.5,-32.8 C 243.8,54.8 189.2,0.3 122,0.3 54.6,0.2 0,54.8 0,122.1 c 0,67.3 54.6,121.8 121.8,121.8 1.8,0 3.6,0 5.4,-0.1 2.8,-9.3 5.6,-18.6 8.3,-28 1.4,-4.7 2.7,-9.3 4.1,-14 1.3,-4.7 2.7,-9.4 4,-14 0,0 -0.1,0 -0.1,0 v 0 c -0.7,0 -1.3,-0.4 -1.7,-0.8 -0.4,-0.5 -0.7,-1.1 -0.7,-1.7 0,-0.4 0.1,-0.9 0.3,-1.3 0.2,-0.4 0.4,-0.8 0.6,-1.2 0.2,-0.4 0.4,-0.8 0.6,-1.2 0.7,-1.6 1.2,-3.3 1.6,-5 0.4,-1.7 0.8,-3.4 1.3,-5.1 0.3,-1.1 0.7,-2.2 1.1,-3.3 0.2,-0.5 0.5,-1.2 0.8,-2.1 0.1,-0.3 0.3,-0.6 0.4,-0.9 0.2,-0.5 0.5,-1.1 0.8,-1.8 2.2,-5 5.7,-12.8 8.6,-19.9 0.4,-0.9 0.7,-1.7 1.1,-2.6 0.2,-0.4 0.3,-0.8 0.5,-1.3 1,-2.5 1.9,-4.8 2.6,-6.7 l 0.2,-0.7 0.2,-0.7 c 0,-0.1 0,-0.1 0,-0.2 0,-0.1 0,-0.2 -0.1,-0.3 0,-0.1 0,-0.2 -0.1,-0.3 0,0.1 0,0.1 0,0.2 0,0.1 -0.1,0.1 -0.1,0.1 l -0.1,0.1 -11.5,9.9 -1.3,7.6 -1.3,7.6 c -0.1,0.4 -0.2,0.8 -0.4,1.1 -0.3,0.5 -0.8,0.9 -1.3,1.1 -0.4,0.2 -0.7,0.2 -1.2,0.3 -0.2,0 -0.4,0 -0.6,0 l -35.7,-6.5 c -1.1,0.7 -2.3,1.4 -3.5,1.9 -0.5,0.2 -1,0.4 -1.4,0.6 -1.4,0.5 -2.7,0.7 -3.7,0.5 -2.5,-0.6 -4.4,-1.3 -5.9,-1.9 -0.2,-0.1 -0.4,-0.2 -0.6,-0.3 -0.4,-0.2 -0.8,-0.4 -1.1,-0.5 -0.2,-0.1 -0.3,-0.2 -0.5,-0.3 -0.5,-0.3 -0.9,-0.5 -1.2,-0.8 -0.5,-0.3 -0.8,-0.6 -1.1,-0.9 -1,-1 -1.1,-1.7 -1.1,-1.7 0,0 0.5,0 1.2,-0.1 l -11.4,-2.1 c -0.1,0 -0.1,0 -0.2,-0.1 0,0 -0.1,0 -0.1,-0.1 v 0.1 l -0.1,-0.2 c 0,0 0,0 0,0 0,0 0,0 0,0 l -6.7,-7.7 c 0,0 0,0 0,0 -0.1,-0.1 -0.1,-0.2 -0.2,-0.3 0,0 0,-0.1 0,-0.1 0,-0.1 -0.1,-0.3 -0.1,-0.4 0,0 0,0 0,0 0,-0.1 0,-0.2 0,-0.3 L 81.7,84.3 c 0,0 0,-0.1 0,-0.1 0,0 0,-0.1 0,-0.1 l 0.2,-1 c 0,-0.1 0,-0.1 0.1,-0.2 0.1,-0.1 0.2,-0.2 0.3,-0.2 0.1,0 0.1,0 0.2,0 l 6.7,1.4 25.2,5.3 7.4,1.6 7.4,1.6 27,5.7 c 0.5,0.1 0.8,0.6 0.8,1.1 l -2.7,15.8 1.2,-1.2 1.2,-1.2 c 0,0 0,0 0,0 0,0 0,0 0,0 0.7,-1 1.4,-1.9 2.1,-2.8 0.7,-0.9 1.5,-1.8 2.3,-2.6 0.4,-0.5 0.9,-0.9 1.3,-1.4 3.1,-3.1 6.1,-5.5 7.8,-7 0.7,-0.6 1.1,-1 1.3,-1.3 0,0 0,-0.4 0.1,-0.9 0.1,-0.7 0.3,-1.9 0.4,-3.3 0.1,-1.4 0.3,-3.1 0.3,-4.8 0,-2.2 -0.2,-4.4 -0.7,-6.5 v 0 c 0,0.4 -0.1,0.7 -0.2,1.1 -0.1,0.3 -0.3,0.6 -0.6,0.9 -1.6,1.7 -4.8,4.1 -9.1,4.6 -1.4,0.2 -3,0.1 -4.7,-0.3 -2.2,-0.5 -4.7,-1.6 -7.4,-3.5 -0.8,-0.7 -1.4,-1.5 -1.7,-2.4 -0.2,-0.6 -0.4,-1.3 -0.5,-1.9 -0.1,-0.7 -0.1,-1.3 -0.1,-2 0,-3 1,-5.7 1,-5.8 0.3,-1.3 0.5,-2 0.5,-2.5 0,-0.2 0,-0.3 -0.1,-0.4 -0.2,-0.5 -0.9,-0.7 -2.4,-1.3 0,0 -0.1,0 -0.1,-0.1 -0.1,-0.1 -0.2,-0.2 -0.4,-0.5 1,-1.5 2,-3 2.9,-4.5 0.3,-0.5 0.7,-1 1,-1.5 0.4,-2.9 1.5,-5.5 2.8,-8.1 v 0 c -7.6,-2.1 -10.3,-1.8 -12.8,-1.8 -0.2,0 -0.4,0 -0.6,0 -0.6,0 -1.3,-0.1 -2,-0.2 -0.5,-0.1 -1.1,-0.4 -1.5,-0.9 -0.2,-0.2 -0.3,-0.4 -0.4,-0.6 -0.3,-0.5 -0.4,-1 -0.5,-1.6 0,-0.3 0,-0.6 0,-0.8 0,-0.3 0.1,-0.5 0.2,-0.8 0,0 0,0 0,0.1 0,0 0,0 0,0.1 0,0 0,0 0,0 0,0 0,-0.1 0.1,-0.2 0,-0.1 0.1,-0.2 0.1,-0.2 0,0 0,0 0,0 0,0 0,0 0,0 0,0 0,0 0,-0.1 0,0 0,0 0,-0.1 0.1,-0.2 0.2,-0.4 0.4,-0.5 0.1,-0.2 0.3,-0.3 0.4,-0.4 0.2,-0.2 0.5,-0.4 0.8,-0.5 0.1,-0.1 0.3,-0.1 0.5,-0.2 0.2,-0.1 0.3,-0.1 0.5,-0.2 v 0 c 0,0 0,0 0.1,0 0.1,0 0,0 0.1,0 0.1,0 0.1,0 0.2,0 0,0 0.1,0 0.1,0 0,0 0,0 0,0 0.1,0 0.1,0 0.2,-0.1 0.1,0 0.1,0 0.2,-0.1 0,0 0.1,0 0.1,0 0,0 0.1,0 0.1,0 0.2,-0.1 0.5,-0.1 0.7,-0.1 0.2,0 0.3,0 0.5,-0.1 0.1,0 0.3,0 0.4,0 0.1,0 0.3,0 0.4,0 v 0 c 0,0 0,0 0,0 0,0 0,0 0,0 0.4,0 0.8,0 1.2,0 0.4,0 0.8,0 1.2,0.1 0,0 0.1,0 0.1,0 0,0 0,0 0,0 3.4,0.3 6.8,1.2 7.9,1.6 0.2,0 0.3,0.1 0.5,0.1 0.7,0.2 1,0 1.4,-0.6 0.6,-1.2 1.1,-2.3 1.7,-3.5 0.6,-1.2 1.1,-2.3 1.8,-3.4 0.5,-0.9 1,-1.7 1.5,-2.4 0.3,-0.4 0.6,-0.7 0.9,-1.1 1.5,-1.7 3.3,-3.1 5.6,-3.7 1.3,-0.3 2.7,-0.4 4,-0.5 0.5,0 0.9,-0.1 1.4,-0.2 0.4,-0.1 1,-0.4 1.3,-0.7 0.2,-0.2 0.3,-0.3 0.5,-0.4 0.5,-0.3 1.1,-0.4 1.6,-0.3 0.7,0.2 1.3,0.7 1.7,1.6 0.1,0.2 0.2,0.4 0.4,0.5 0.2,0.2 0.3,0.3 0.5,0.4 6.6,2.5 9.9,7.7 10.8,14.8 0.1,1.1 0.2,2.2 0.2,3.3 0,1.1 -0.1,2.2 -0.1,3.3 0,0.5 0,0.9 -0.1,1.2 0,0.1 0,0.1 -0.1,0.2 -0.1,0.2 -0.2,0.3 -0.4,0.3 0,0.4 0.1,0.8 0.1,1.1 0,0.4 0.1,0.7 0.1,1.1 0,0.8 0,1.5 -0.1,2.3 0,0.6 -0.1,1.3 -0.2,1.9 -0.2,1.2 -0.5,2.5 -0.9,3.6 -0.2,0.6 -0.4,1.2 -0.7,1.8 -0.2,0.6 -0.4,1.1 -0.5,1.6 -0.1,0.4 -0.1,0.8 0,1.3 0,0.2 0.1,0.3 0.1,0.5 0.1,0.4 0.3,0.7 0.5,0.9 0.1,0.1 0.1,0.1 0.2,0.2 0.3,0.2 0.7,0.2 1.1,0.2 0.4,0 1,-0.3 1.2,0.3 0.1,0.2 0.1,0.3 0.1,0.5 0.1,0.5 -0.1,1 -0.6,1.3 -0.7,0.5 -1.5,0.9 -2.3,1.1 -0.2,0 -0.3,0.1 -0.5,0.1 -0.5,0 -0.9,0 -1.4,0 0,0.5 0.2,1.2 0.6,2 0.1,0.3 0.2,0.6 0.4,0.9 1.2,2.9 3.4,6.8 4.6,9 0.1,0.2 0.2,0.4 0.3,0.5 0.2,0.3 0.3,0.6 0.5,0.8 0.1,0.1 0.1,0.2 0.2,0.3 0.2,0.2 0.3,0.5 0.3,0.7 0.5,0.2 0.9,0.5 1.4,0.8 0.1,0.1 0.3,0.2 0.4,0.3 0.5,0.4 1,1 1.4,1.8 1.1,2.2 2.2,4.4 3.2,6.6 1,2.2 1.8,4.5 2.6,6.8 0.6,2.2 1.1,4.3 1.5,6.5 0.1,0.7 0.3,1.5 0.4,2.2 1,5.8 1.4,11.7 1.5,17.6 0,0.7 0,1.5 0,2.2 0,0.7 0,1.5 0,2.2 0,1.5 0,3 0,4.4 0,0.2 0,0.4 0,0.6 0,0.6 0,1.3 0.1,2 0,0.5 0.1,1 0.1,1.5 0,0.3 0,0.5 0.1,0.8 0.3,4.1 1,9 1.4,12.2 0.1,0.6 0.1,1.1 0.2,1.6 0,0.3 0.1,0.6 0.1,0.8 0,0.3 0.1,0.6 0.1,0.7 0,0.1 0,0.1 0,0.1 -0.1,0 -0.2,-0.1 -0.2,-0.1 -0.2,-0.1 -0.3,-0.1 -0.5,-0.2 -0.1,0 -0.2,-0.1 -0.3,-0.1 l 0.8,0.5 c 0,0 0.1,0.4 0.3,1 0.1,0.1 0.1,0.3 0.2,0.5 0.2,0.5 0.4,1 0.6,1.5 0.1,0.1 0.2,0.2 0.3,0.3 0.1,0.1 0.2,0.2 0.3,0.3 0.8,0.9 1.2,1.9 1.4,2.8 0,0.2 0,0.3 0.1,0.5 0,0.2 0,0.3 0,0.5 0,0.2 0,0.3 0,0.5 0,0.2 0,0.3 0,0.5 -0.3,2.1 -1.4,4.2 -1.4,6.4 0,0.3 0,0.6 0.1,0.9 0,0.2 0.1,0.3 0.1,0.5 0.2,0.8 0.6,1.5 1.3,2.3 0.4,0.5 0.6,0.9 0.6,1.3 0,0.6 -0.3,1.2 -0.5,1.8 -0.1,0.3 -0.2,0.7 -0.3,1 0,0.1 0,0.2 0,0.4 0,0.3 0.1,0.5 0.1,0.8 0.1,0.3 0.2,0.6 0.1,0.8 0,0.1 0,0.2 0,0.2 -0.1,0.3 -0.3,0.6 -0.8,0.8 -0.3,0 -0.6,-0.1 -0.9,-0.1 -0.3,0 -0.6,-0.1 -0.9,-0.1 0.1,0.8 0.2,1.5 0.2,2.3 0.2,3.8 -0.3,7.5 -0.8,11.3 -0.2,1.5 -0.4,3 -0.6,4.5 -0.2,1.3 -0.3,2.7 -0.5,4 -0.3,2.7 -0.6,5.4 -0.8,8.1 -0.1,1.3 -0.1,2.7 -0.2,4.1 0,1.3 0.1,2.6 0.2,3.9 0.1,0.4 0.1,0.8 0.2,1.2 0.3,1.2 0.6,2.4 1.1,3.5 1.3,3.4 3.5,6.4 6.4,9.1 3.9,3.7 8,7.4 11.5,11.5 0.8,1 1.6,1.9 2.4,2.9 0,0.1 0.1,0.1 0.2,0.2 0.1,0.1 0.1,0.2 0.2,0.4 0.3,0.4 0.8,1.1 1.6,1.8 0.3,0.2 0.6,0.5 0.9,0.7 0.7,0.5 1.5,1.1 2.5,1.6 0.3,0.2 0.6,0.6 0.8,1 0.1,0.1 0.1,0.2 0.1,0.3 0.1,0.3 0.2,0.6 0.2,0.8 0,0.3 0,0.6 0.1,0.8 0,0.1 0,0.2 0.1,0.3 0.1,0.3 0.3,0.6 0.7,0.8 0.1,0 0.1,0.1 0.2,0.1 0.2,0.1 0.5,0.2 0.7,0.3 0.3,0.1 0.6,0.4 0.7,0.7 0,0.1 0.1,0.2 0,0.4 0,0.1 0,0.2 -0.1,0.4 -0.1,0.2 -0.1,0.4 -0.1,0.7 0,0.6 0.2,1.3 0.4,1.9 0.1,0.2 0.1,0.4 0.1,0.6 0,0.1 0,0.2 0,0.3 0,0.5 -0.2,0.9 -0.7,1.4 l 2,8.2 c 6.1,2 12.7,3.1 19.5,3.1 34.7,0 62.8,-28.1 62.8,-62.8 -0.6,-35.4 -28.8,-63.5 -63.4,-63.5"
             mask="url(#mask-4_1_)"
             inkscape:connector-curvature="0"
             style="fill:#ff9300;stroke-width:0.70549077" />
        </g>
        <path
           id="Fill-99"
           class="st13"
           d="m 230.8,268.3 c -0.8,0.3 -1.9,0.8 -3.1,1.4 -0.7,0.3 -1.3,0.7 -1.9,1 -1.6,0.9 -3,1.6 -3,1.6 0,0 -3,1.4 -5.3,2.4 -0.2,0.1 -0.4,0.2 -0.6,0.3 -0.5,0.3 -1,0.5 -1.4,0.6 -0.4,0.2 -0.7,0.5 -0.9,0.8 -0.1,0.1 -0.1,0.2 -0.2,0.3 -0.2,0.5 -0.1,1 0.4,1.3 2.1,1 0.4,1 1.8,2.5 0.2,0.1 0.4,0.1 0.7,0.1 h 0.1 v 0 c 1.1,-0.5 2.9,-1.6 3.9,-2.1 0.5,-0.2 0.9,-0.3 1.3,-0.3 0.1,0 0.2,0 0.3,0.1 0.3,0.1 0.5,0.3 0.6,0.7 0.1,0.1 0.1,0.2 0.1,0.3 0,0.1 0,0.2 0,0.3 0,0.1 -0.1,0.2 -0.2,0.3 -0.2,0.3 -0.7,0.5 -1.1,0.7 -0.3,0.2 -0.8,0.4 -1.3,0.7 -0.2,0.1 -0.3,0.2 -0.5,0.3 -0.7,0.4 -1.3,0.8 -1.5,1.4 0.1,0.1 0.3,0.6 1,0.9 0.7,-0.4 1.5,-0.7 2.3,-1 0.4,-0.1 0.8,-0.3 1.3,-0.4 0.4,-0.1 0.8,-0.2 1.2,-0.3 0.5,-0.1 0.9,-0.1 1.2,0.1 0.1,0.1 0.1,0.1 0.2,0.2 0.1,0.1 0.1,0.2 0.1,0.4 0,0.2 -0.1,0.5 -0.2,0.7 -0.1,0.1 -0.2,0.2 -0.2,0.3 -0.4,0.6 -1.1,1 -1.8,1.4 -0.2,0.1 -0.5,0.2 -0.7,0.3 -0.2,0.1 -0.4,0.2 -0.6,0.3 -0.4,0.2 -0.7,0.3 -1,0.5 0.2,0.6 0.9,1 1.5,1.3 0.1,0 0.1,0.1 0.2,0.1 1,-0.5 1.9,-0.9 2.9,-1.4 0.6,-0.3 1.3,-0.6 1.8,-0.3 0.1,0 0.2,0.1 0.2,0.2 0.1,0.1 0.1,0.2 0.2,0.3 0.1,0.2 0.1,0.4 0.1,0.6 -0.1,0.4 -0.4,0.8 -0.8,1.1 -0.1,0.1 -0.3,0.2 -0.5,0.3 -0.3,0.1 -0.5,0.3 -0.7,0.4 -0.6,0.3 -1.1,0.7 -1.7,1.5 0.1,0.2 0.7,0.9 0.7,0.9 1,-0.4 2.2,-0.9 3.2,-1.3 0.3,-0.1 0.5,-0.2 0.8,-0.2 0.3,0 0.5,0 0.7,0.2 0.1,0.1 0.2,0.2 0.3,0.4 0.1,0.1 0.1,0.2 0.1,0.3 0,0.1 0,0.2 0,0.3 0,0.5 -0.4,0.9 -1,1.3 -0.6,0.3 -1.4,0.8 -2.1,1.1 -0.2,0.1 -0.5,0.2 -0.7,0.3 0.3,0.7 0.6,1.3 1.1,1.9 2.5,2.4 1.2,6.6 0.5,8.6 0.2,0 0.4,0 0.7,0.1 0.4,0.1 0.8,0.3 1.2,0.5 1.3,0.7 2.6,1.8 2.6,1.9 0,0 0,0 -0.2,-0.1 -0.4,-0.2 -0.8,-0.4 -1.2,-0.6 -0.3,-0.1 -0.6,-0.2 -0.8,-0.3 -1.5,-0.4 -2.8,-0.5 -2.8,-0.5 0,0 -5.9,-0.9 -7.8,-0.5 -1.2,0.3 -3.2,1.7 -3.3,3.9 0,1.1 0.2,2.2 0.5,3.3 0.2,0.8 0.6,1.6 1.2,2.2 0,0 0,0 0.1,0 0,0 0.1,-0.1 0.2,-0.1 l 7.6,-0.6 7.6,-0.6 5.1,-5.7 5.1,-5.7 v 0 c 0,0 0,0 0,0 -0.1,-0.2 -0.2,-0.4 -0.2,-0.6 -0.3,-1.2 -1.4,-2.3 -1.9,-3.1 -3.1,-4.7 -6.5,-13.1 -8.9,-20.7 l -2,-8.2 c -0.2,-0.5 -0.4,-0.6 -0.6,-0.6"
           inkscape:connector-curvature="0"
           style="fill:#ff9100;stroke-width:0.70549077" />
      </g>
    </g>
  </g>
  <flowRoot
     xml:space="preserve"
     id="flowRoot5097"
     style="font-style:normal;font-weight:normal;font-size:40px;line-height:1.25;font-family:sans-serif;letter-spacing:0px;word-spacing:0px;fill:#000000;fill-opacity:1;stroke:none"
     transform="translate(-270)"><flowRegion
       id="flowRegion5099"><rect
         id="rect5101"
         width="520"
         height="491.76471"
         x="498.82352"
         y="58.35294" /></flowRegion><flowPara
       id="flowPara5103"></flowPara></flowRoot>  <flowRoot
     xml:space="preserve"
     id="flowRoot5105"
     style="font-style:normal;font-weight:normal;font-size:40px;line-height:1.25;font-family:sans-serif;letter-spacing:0px;word-spacing:0px;fill:#000000;fill-opacity:1;stroke:none"
     transform="translate(-270)"><flowRegion
       id="flowRegion5107"><rect
         id="rect5109"
         width="344.70587"
         height="135.29411"
         x="61.176472"
         y="13.647058" /></flowRegion><flowPara
       id="flowPara5111"></flowPara></flowRoot></svg>
