<?xml version="1.0" encoding="UTF-8"?>
<svg width="18px" height="18px" viewBox="0 0 18 18" version="1.1" xmlns="http://www.w3.org/2000/svg" xmlns:xlink="http://www.w3.org/1999/xlink">
        <path d="M18.0833333,16.9166667 L14.3333333,13.1666667 C15.25,12 15.8333333,10.4166667 15.8333333,8.75 C15.8333333,4.83333333 12.6666667,1.66666667 8.75,1.66666667 C4.83333333,1.66666667 1.66666667,4.83333333 1.66666667,8.75 C1.66666667,12.6666667 4.83333333,15.8333333 8.75,15.8333333 C10.4166667,15.8333333 11.9166667,15.25 13.1666667,14.3333333 L16.9166667,18.0833333 C17.0833333,18.25 17.3333333,18.3333333 17.5,18.3333333 C17.6666667,18.3333333 17.9166667,18.25 18.0833333,18.0833333 C18.4166667,17.75 18.4166667,17.25 18.0833333,16.9166667 Z M3.33333333,8.75 C3.33333333,5.75 5.75,3.33333333 8.75,3.33333333 C11.75,3.33333333 14.1666667,5.75 14.1666667,8.75 C14.1666667,10.25 13.5833333,11.5833333 12.5833333,12.5833333 C12.5833333,12.5833333 12.5833333,12.5833333 12.5833333,12.5833333 C12.5833333,12.5833333 12.5833333,12.5833333 12.5833333,12.5833333 C11.5833333,13.5833333 10.25,14.1666667 8.75,14.1666667 C5.75,14.1666667 3.33333333,11.75 3.33333333,8.75 Z"></path>    
</svg>